<svg width="30" height="30" viewBox="0 0 30 30" fill="none" xmlns="http://www.w3.org/2000/svg">
<circle cx="15" cy="15" r="13" fill="white" stroke="#51C63A" stroke-width="2"/>
<rect x="9.75" y="11.75" width="10.5" height="6.5" stroke="#52C63A" stroke-width="1.5"/>
<path d="M19.9458 12.1167C19.9817 12.1563 20.031 12.1808 20.0829 12.1848C20.1348 12.1887 20.1849 12.1719 20.2224 12.1379L22.9883 9.62937L22.9632 10.8197C22.963 10.8712 22.983 10.9218 23.0188 10.9607C23.0546 10.9995 23.1034 11.0235 23.1547 11.0274C23.206 11.0313 23.2557 11.0149 23.293 10.9817C23.3303 10.9484 23.3524 10.901 23.3543 10.8497L23.3894 9.18563C23.39 9.16004 23.3856 9.13431 23.3764 9.10991C23.3671 9.08551 23.3533 9.06292 23.3356 9.04345L23.3351 9.04285C23.3175 9.02345 23.2962 9.00737 23.2724 8.99582C23.2489 8.98411 23.2236 8.97707 23.198 8.97513L21.5384 8.84802C21.4871 8.84499 21.4378 8.8623 21.4011 8.89622C21.3644 8.93014 21.3432 8.97796 21.3421 9.02938C21.341 9.08081 21.3601 9.13171 21.3953 9.17114C21.4305 9.21057 21.4789 9.23536 21.5302 9.24018L22.7176 9.33085L19.9517 11.8394C19.9142 11.8734 19.8925 11.9217 19.8915 11.9737C19.8904 12.0257 19.9099 12.0771 19.9458 12.1167V12.1167Z" fill="#858585"/>
<path d="M10.3351 12.1167C10.2992 12.1563 10.2499 12.1808 10.198 12.1848C10.1461 12.1887 10.0959 12.1719 10.0585 12.1379L7.29255 9.62937L7.31765 10.8197C7.31784 10.8712 7.29788 10.9218 7.26206 10.9607C7.22625 10.9995 7.17744 11.0235 7.12616 11.0274C7.07488 11.0313 7.02522 11.0149 6.98789 10.9817C6.95055 10.9484 6.92852 10.901 6.92655 10.8497L6.89147 9.18563C6.89085 9.16004 6.89529 9.13431 6.90452 9.10991C6.91375 9.08551 6.9276 9.06292 6.94526 9.04345L6.9458 9.04285C6.9634 9.02345 6.98467 9.00737 7.00853 8.99582C7.03198 8.98411 7.05726 8.97707 7.0829 8.97513L8.74245 8.84802C8.79374 8.84499 8.84306 8.8623 8.87978 8.89622C8.9165 8.93014 8.93768 8.97796 8.93877 9.02938C8.93985 9.08081 8.92075 9.13171 8.88558 9.17114C8.8504 9.21057 8.80197 9.23536 8.75072 9.24018L7.5633 9.33085L10.3292 11.8394C10.3667 11.8734 10.3883 11.9217 10.3894 11.9737C10.3905 12.0257 10.371 12.0771 10.3351 12.1167V12.1167Z" fill="#858585"/>
<path d="M19.9458 18.0429C19.9817 18.0033 20.031 17.9788 20.0829 17.9748C20.1348 17.9709 20.1849 17.9877 20.2224 18.0217L22.9883 20.5302L22.9632 19.3399C22.963 19.2884 22.983 19.2378 23.0188 19.1989C23.0546 19.1601 23.1034 19.1361 23.1547 19.1322C23.206 19.1283 23.2557 19.1447 23.293 19.1779C23.3303 19.2112 23.3524 19.2586 23.3543 19.3099L23.3894 20.974C23.39 20.9995 23.3856 21.0253 23.3764 21.0497C23.3671 21.0741 23.3533 21.0967 23.3356 21.1161L23.3351 21.1167C23.3175 21.1361 23.2962 21.1522 23.2724 21.1638C23.2489 21.1755 23.2236 21.1825 23.198 21.1845L21.5384 21.3116C21.4871 21.3146 21.4378 21.2973 21.4011 21.2634C21.3644 21.2294 21.3432 21.1816 21.3421 21.1302C21.341 21.0788 21.3601 21.0279 21.3953 20.9885C21.4305 20.949 21.4789 20.9242 21.5302 20.9194L22.7176 20.8287L19.9517 18.3202C19.9142 18.2862 19.8925 18.2379 19.8915 18.1859C19.8904 18.1339 19.9099 18.0824 19.9458 18.0429V18.0429Z" fill="#858585"/>
<path d="M10.3351 18.0429C10.2992 18.0033 10.2499 17.9788 10.198 17.9748C10.1461 17.9709 10.0959 17.9877 10.0585 18.0217L7.29255 20.5302L7.31765 19.3399C7.31784 19.2884 7.29788 19.2378 7.26206 19.1989C7.22625 19.1601 7.17744 19.1361 7.12616 19.1322C7.07488 19.1283 7.02522 19.1447 6.98789 19.1779C6.95055 19.2112 6.92852 19.2586 6.92655 19.3099L6.89147 20.974C6.89085 20.9995 6.89529 21.0253 6.90452 21.0497C6.91375 21.0741 6.9276 21.0967 6.94526 21.1161L6.9458 21.1167C6.9634 21.1361 6.98467 21.1522 7.00853 21.1638C7.03198 21.1755 7.05726 21.1825 7.0829 21.1845L8.74245 21.3116C8.79374 21.3146 8.84306 21.2973 8.87978 21.2634C8.9165 21.2294 8.93768 21.1816 8.93877 21.1302C8.93985 21.0788 8.92075 21.0279 8.88558 20.9885C8.8504 20.949 8.80197 20.9242 8.75072 20.9194L7.5633 20.8287L10.3292 18.3202C10.3667 18.2862 10.3883 18.2379 10.3894 18.1859C10.3905 18.1339 10.371 18.0824 10.3351 18.0429V18.0429Z" fill="#858585"/>
</svg>
