<svg xmlns="http://www.w3.org/2000/svg" width="50" height="50" viewBox="0 0 50 50">
  <g id="Group_4473" data-name="Group 4473" transform="translate(-6 -88)">
    <rect id="Rectangle_2349" data-name="Rectangle 2349" width="50" height="50" rx="5" transform="translate(6 88)" fill="#fff" opacity="0"/>
    <g id="Group_4263" data-name="Group 4263" transform="translate(9.353 95.876)">
      <ellipse id="Ellipse_24" data-name="Ellipse 24" cx="15.148" cy="15.148" rx="15.148" ry="15.148" transform="translate(0 0.001)" fill="#1eabbc"/>
      <path id="Path_189" data-name="Path 189" d="M31.726,24.148a11.579,11.579,0,0,1-.18,2.164,15.446,15.446,0,0,1-13.3,12.811A12.933,12.933,0,0,1,16,39.3V9a12.933,12.933,0,0,1,2.247.173,15.446,15.446,0,0,1,13.3,12.811,11.579,11.579,0,0,1,.18,2.164Z" transform="translate(-0.852 -8.998)" fill="#29818c"/>
    </g>
    <path id="Path_5476" data-name="Path 5476" d="M18.4,8.21A10.192,10.192,0,1,0,28.593,18.4,10.192,10.192,0,0,0,18.4,8.21Zm3.98,10.834H19.044v3.337a.643.643,0,1,1-1.285,0V19.044H14.422a.643.643,0,1,1,0-1.285h3.337V14.422a.643.643,0,1,1,1.285,0v3.337h3.337a.643.643,0,0,1,0,1.285Z" transform="translate(24.054 101.53)" fill="#149933"/>
  </g>
</svg>
