<svg xmlns="http://www.w3.org/2000/svg" width="20.095" height="22.966" viewBox="0 0 20.095 22.966">
  <path id="paste_icon" data-name="paste icon" d="M5.741,8.253A2.515,2.515,0,0,1,8.253,5.741h6.1V2.512a1.077,1.077,0,0,0-1.077-1.077H9.661a2.868,2.868,0,0,0-4.969,0H1.077A1.077,1.077,0,0,0,0,2.512V17.583A1.077,1.077,0,0,0,1.077,18.66H5.741ZM7.177,1.794A1.077,1.077,0,1,1,6.1,2.871,1.077,1.077,0,0,1,7.177,1.794ZM15.43,12.918H20.1v8.971a1.077,1.077,0,0,1-1.077,1.077H8.253a1.077,1.077,0,0,1-1.077-1.077V8.253A1.077,1.077,0,0,1,8.253,7.177h6.1v4.665A1.08,1.08,0,0,0,15.43,12.918ZM20.1,11.211v.272H15.789V7.177h.272a1.077,1.077,0,0,1,.761.315L19.78,10.45a1.077,1.077,0,0,1,.315.761Z" fill="#6d6d6d"/>
</svg>
