<svg xmlns="http://www.w3.org/2000/svg" width="50" height="50" viewBox="0 0 50 50">
  <g id="Group_4481" data-name="Group 4481" transform="translate(-6 -88)">
    <rect id="Rectangle_2349" data-name="Rectangle 2349" width="50" height="50" rx="5" transform="translate(6 88)" fill="#fff" opacity="0"/>
    <g id="Group_4263" data-name="Group 4263" transform="translate(14.819 97.121)">
      <circle id="Ellipse_24" data-name="Ellipse 24" cx="15.878" cy="15.878" r="15.878" fill="#1eabbc"/>
      <path id="Path_189" data-name="Path 189" d="M32.484,24.878a12.137,12.137,0,0,1-.188,2.268,16.191,16.191,0,0,1-13.94,13.428A13.556,13.556,0,0,1,16,40.756V9a13.556,13.556,0,0,1,2.355.181A16.191,16.191,0,0,1,32.3,22.61a12.137,12.137,0,0,1,.188,2.268Z" transform="translate(-0.122 -8.999)" fill="red"/>
    </g>
  </g>
</svg>
