<svg xmlns="http://www.w3.org/2000/svg" width="56.336" height="29.663" viewBox="0 0 56.336 29.663">
  <g id="Add_Fiber_icon" data-name="Add Fiber icon" transform="translate(-84.87 -132.827)">
    <line id="Line_203" data-name="Line 203" x2="38.654" transform="matrix(0.946, 0.326, -0.326, 0.946, 93.236, 141.742)" fill="none" stroke="#3e90bf" stroke-width="2"/>
    <g id="Group_4265" data-name="Group 4265" transform="matrix(0.946, 0.326, -0.326, 0.946, 88.88, 132.827)">
      <circle id="Ellipse_24" data-name="Ellipse 24" cx="6.158" cy="6.158" r="6.158" fill="#6d6d6d"/>
      <path id="Path_189" data-name="Path 189" d="M6.393,6.158a4.707,4.707,0,0,1-.073.88A6.279,6.279,0,0,1,.913,12.246a5.258,5.258,0,0,1-.913.07V0a5.257,5.257,0,0,1,.913.07A6.279,6.279,0,0,1,6.32,5.278,4.707,4.707,0,0,1,6.393,6.158Z" transform="translate(6.158 0)" fill="#6d6d6d"/>
    </g>
    <g id="Group_4266" data-name="Group 4266" transform="matrix(0.946, 0.326, -0.326, 0.946, 129.339, 146.758)">
      <circle id="Ellipse_24-2" data-name="Ellipse 24" cx="6.158" cy="6.158" r="6.158" fill="#6d6d6d"/>
      <path id="Path_189-2" data-name="Path 189" d="M6.393,6.158a4.707,4.707,0,0,1-.073.88A6.279,6.279,0,0,1,.913,12.246a5.258,5.258,0,0,1-.913.07V0a5.257,5.257,0,0,1,.913.07A6.279,6.279,0,0,1,6.32,5.278,4.707,4.707,0,0,1,6.393,6.158Z" transform="translate(6.158 0)" fill="#6d6d6d"/>
    </g>
  </g>
</svg>
