<svg xmlns="http://www.w3.org/2000/svg" width="50" height="50" viewBox="0 0 50 50">
  <g id="analyze" transform="translate(5548 14604)">
    <g id="Group_4491" data-name="Group 4491" transform="translate(-5554 -14692)">
      <rect id="Rectangle_2349" data-name="Rectangle 2349" width="50" height="50" rx="5" transform="translate(6 88)" fill="none"/>
    </g>
    <g id="Group_4497" data-name="Group 4497" transform="translate(-5546.236 -14601.115)">
      <path id="Path_5568" data-name="Path 5568" d="M18.8,22.666a1.041,1.041,0,0,0-1.062-.552L3,23.962a1.083,1.083,0,0,0-.934,1.189A15.631,15.631,0,0,0,7.67,35.388a1.041,1.041,0,0,0,1.487-.127l9.515-11.4a1.019,1.019,0,0,0,.127-1.189Zm-13.55-.828h.127L20.115,19.99a1.083,1.083,0,0,0,.934-1.062V4.062A1.062,1.062,0,0,0,19.988,3,15.928,15.928,0,0,0,4.06,18.928a15.27,15.27,0,0,0,.127,2A1.083,1.083,0,0,0,5.249,21.838Z" transform="translate(0 0)" fill="#2b7c80"/>
      <path id="Path_5569" data-name="Path 5569" d="M37.953,32.928,32.58,27.533A15.907,15.907,0,0,0,18.1,5a1.062,1.062,0,0,0-1.062,1.062V20.546L7.774,31.653A1.041,1.041,0,0,0,7.9,33.14a15.822,15.822,0,0,0,19.475.7l4.842,4.821a1.019,1.019,0,0,0,1.487,0l4.248-4.248a1.019,1.019,0,0,0,0-1.487ZM22.768,31.653a11.936,11.936,0,0,1-4.672.956,1.062,1.062,0,1,1,0-2.124,9.472,9.472,0,0,0,3.823-.786,1.065,1.065,0,0,1,.85,1.954Zm4.672-3.717a1.083,1.083,0,0,1-.85.425,1,1,0,0,1-.637-.212,1.062,1.062,0,0,1-.212-1.487,9.408,9.408,0,0,0,1.911-5.734,9.6,9.6,0,0,0-3.823-7.646,1.062,1.062,0,1,1,1.274-1.7,11.745,11.745,0,0,1,4.672,9.345,11.49,11.49,0,0,1-2.336,7.008Z" transform="translate(6.14 2.248)" fill="#2b7c80"/>
    </g>
  </g>
</svg>
