<svg width="50" height="50" viewBox="0 0 50 50" fill="none" xmlns="http://www.w3.org/2000/svg">
<circle cx="25" cy="25" r="25" fill="#DCEBEC"/>
<g clip-path="url(#clip0_6_8)">
<path d="M28.9104 22.994C29.576 22.994 30.2143 22.7297 30.6849 22.259C31.1555 21.7884 31.4199 21.1501 31.4199 20.4846C31.4199 19.819 31.1555 19.1807 30.6849 18.7101C30.2143 18.2395 29.576 17.9751 28.9104 17.9751C28.2449 17.9724 27.6055 18.2342 27.133 18.7029C26.6604 19.1716 26.3935 19.8089 26.3908 20.4744C26.3881 21.14 26.6499 21.7793 27.1186 22.2519C27.5873 22.7244 28.2245 22.9914 28.8901 22.994H28.9104ZM28.9104 19.6562C29.1221 19.6582 29.3246 19.7427 29.4748 19.8917C29.6307 20.0511 29.7168 20.2658 29.7144 20.4886C29.7151 20.6926 29.6391 20.8893 29.5014 21.0398C29.3638 21.1903 29.1745 21.2834 28.9713 21.3008C28.86 21.3086 28.7482 21.2934 28.643 21.2561C28.5378 21.2188 28.4415 21.1602 28.3599 21.084C28.2784 21.0078 28.2134 20.9156 28.1691 20.8131C28.1248 20.7107 28.1021 20.6002 28.1023 20.4886C28.1135 20.2749 28.2021 20.0726 28.3516 19.9194C28.501 19.7662 28.7011 19.6727 28.9145 19.6562H28.9104ZM32.8573 15.762H26.3887C26.2747 15.7538 26.1601 15.7683 26.0517 15.8049C25.9433 15.8414 25.8433 15.8991 25.7575 15.9747C25.6717 16.0503 25.6018 16.1423 25.5519 16.2452C25.502 16.3481 25.4732 16.46 25.467 16.5742C25.4602 16.6809 25.4754 16.7879 25.5118 16.8885C25.5481 16.9891 25.6047 17.0811 25.6781 17.1589C25.8612 17.3423 26.1093 17.4459 26.3684 17.4472H32.6746V25.6335L32.2442 25.268C31.8381 24.9269 31.4321 24.5777 31.026 24.265C30.6932 24.0073 30.2856 23.8648 29.8646 23.859C29.4602 23.8654 29.066 23.9865 28.7277 24.2082C28.4191 24.4031 28.1348 24.6142 27.8587 24.8416L27.6679 24.9919C27.4323 25.1705 27.2009 25.3533 26.9694 25.536C26.6283 25.804 26.2872 26.072 25.938 26.3481C25.8951 26.3848 25.8489 26.4175 25.8 26.4456C25.7556 26.4089 25.7136 26.3696 25.6741 26.3278L25.3086 25.9624L25.0772 25.7228L24.6914 25.3167C24.3869 25 24.0701 24.6751 23.7331 24.3706C23.4055 24.0555 22.9694 23.8782 22.5149 23.8752C22.2063 23.8784 21.9028 23.9549 21.6297 24.0985C21.3104 24.2656 21.0012 24.4514 20.7038 24.6548L20.5049 24.7888C20.3994 24.8433 20.3063 24.919 20.2315 25.0111C20.1567 25.1032 20.1017 25.2099 20.07 25.3243C20.0384 25.4387 20.0307 25.5584 20.0476 25.6759C20.0644 25.7934 20.1054 25.9061 20.1679 26.007C20.2385 26.1221 20.3377 26.217 20.4558 26.2824C20.5739 26.3479 20.7069 26.3817 20.8419 26.3806C21.0525 26.3753 21.2571 26.309 21.4307 26.1898L21.6662 26.0355C21.8774 25.8974 22.0723 25.7593 22.3078 25.6294C22.3574 25.5962 22.4148 25.5766 22.4743 25.5726C22.5595 25.5832 22.6377 25.6252 22.6936 25.6903C22.8519 25.8406 23.0062 25.9989 23.1605 26.1532L23.2133 26.206L23.6762 26.677C24.0214 27.0344 24.3787 27.4039 24.7604 27.7491C25.0331 28.0062 25.3927 28.1512 25.7675 28.1551C26.0771 28.1491 26.3787 28.0547 26.6364 27.8831C26.9731 27.6657 27.2984 27.4313 27.611 27.1806L27.7044 27.1075L28.5165 26.4821C28.8089 26.2466 29.1013 26.0152 29.3977 25.7878C29.5224 25.6694 29.6791 25.5904 29.8484 25.5604C30.0232 25.5908 30.1854 25.6712 30.3154 25.7918L30.421 25.8771L30.892 26.2832C31.4727 26.7948 32.0533 27.3105 32.6178 27.8303C32.6337 27.8516 32.6435 27.8769 32.6462 27.9034C32.6462 29.418 32.6665 30.9326 32.6746 32.4472V32.7355L17.3863 32.7112C17.3863 31.4645 17.3863 30.2179 17.4066 28.9429C17.9589 28.5693 18.503 28.1917 19.0309 27.814L19.5263 27.4689C19.6466 27.3975 19.7511 27.3023 19.8335 27.1892C19.9158 27.0761 19.9743 26.9475 20.0054 26.811C20.0232 26.7078 20.0198 26.6019 19.9954 26.5C19.971 26.3981 19.926 26.3022 19.8633 26.2182C19.79 26.1084 19.6911 26.018 19.5751 25.9551C19.459 25.8921 19.3294 25.8584 19.1974 25.8568C18.9649 25.8667 18.741 25.9475 18.5558 26.0883L17.9264 26.5187L17.3457 26.9247V17.4756H24.1351C24.248 17.4793 24.3609 17.4711 24.4721 17.4513C24.6182 17.4238 24.7544 17.3583 24.8671 17.2613C24.9797 17.1644 25.0648 17.0394 25.1137 16.899C25.1589 16.7722 25.1692 16.6356 25.1434 16.5034C25.1177 16.3713 25.057 16.2484 24.9675 16.1478C24.76 15.9344 24.4773 15.8105 24.1798 15.8027C22.7748 15.8027 21.3698 15.8027 19.9648 15.8027H17.167C16.9663 15.7909 16.7654 15.8217 16.5773 15.893C16.3893 15.9642 16.2184 16.0744 16.0759 16.2162C15.9333 16.358 15.8223 16.5282 15.75 16.7159C15.6777 16.9035 15.6459 17.1043 15.6565 17.3051V33.0076C15.6446 33.2064 15.6751 33.4054 15.7458 33.5916C15.8165 33.7777 15.9259 33.9468 16.0667 34.0876C16.2075 34.2284 16.3766 34.3378 16.5627 34.4085C16.7489 34.4792 16.9479 34.5097 17.1467 34.4978H32.8655C33.0617 34.5071 33.2576 34.4753 33.4409 34.4045C33.6241 34.3338 33.7906 34.2256 33.9297 34.0869C34.0687 33.9482 34.1774 33.782 34.2486 33.599C34.3199 33.4159 34.3522 33.22 34.3435 33.0238C34.3435 27.7802 34.3435 22.5365 34.3435 17.2929C34.3599 17.0922 34.3333 16.8904 34.2656 16.7008C34.1978 16.5112 34.0904 16.3382 33.9506 16.1933C33.8107 16.0485 33.6416 15.9351 33.4545 15.8607C33.2674 15.7864 33.0666 15.7527 32.8655 15.762H32.8573ZM39.9635 13.7642L39.996 13.683V10.8081L39.1838 9.99594H36.317L36.2358 10.0325C35.9733 10.1491 35.7539 10.3449 35.6082 10.5925C35.4626 10.8401 35.3981 11.127 35.4237 11.4131H27.3024C27.3274 11.1271 27.2626 10.8404 27.117 10.593C26.9715 10.3455 26.7524 10.1496 26.4903 10.0325L26.4091 9.99594H23.6072L23.526 10.0325C23.2624 10.1476 23.0419 10.3431 22.896 10.5911C22.7502 10.839 22.6864 11.1267 22.7139 11.4131H14.5926C14.617 11.1272 14.5519 10.8408 14.4064 10.5934C14.2609 10.3461 14.0422 10.1501 13.7805 10.0325L13.6992 9.99594H10.8934L10.8081 10.0406C10.5373 10.166 10.3131 10.3736 10.1673 10.6339C10.0214 10.8942 9.96148 11.1939 9.99594 11.4903C10.0162 11.8963 9.99594 12.3024 9.99594 12.676C9.99594 12.8912 9.99594 13.1064 9.99594 13.3216C9.9916 13.4843 10.0199 13.6462 10.0792 13.7978C10.1385 13.9493 10.2275 14.0875 10.3411 14.2041C10.4546 14.3207 10.5904 14.4133 10.7403 14.4765C10.8903 14.5398 11.0514 14.5723 11.2141 14.5723H11.4009V22.6936H11.2263C11.0622 22.6902 10.8992 22.7201 10.7469 22.7814C10.5947 22.8427 10.4564 22.9341 10.3403 23.0501C10.2243 23.1662 10.1329 23.3045 10.0716 23.4567C10.0103 23.609 9.98045 23.772 9.98376 23.9361C9.98376 24.6291 9.98376 25.3235 9.98376 26.0192C9.97997 26.1816 10.0087 26.343 10.0682 26.4941C10.1277 26.6452 10.2169 26.7829 10.3304 26.899C10.4439 27.0152 10.5794 27.1075 10.7291 27.1705C10.8788 27.2335 11.0396 27.2659 11.202 27.2658H11.3847V35.3871H11.202C11.039 35.3836 10.877 35.4136 10.726 35.4751C10.575 35.5367 10.4382 35.6285 10.3241 35.7449C10.21 35.8613 10.1209 35.9999 10.0624 36.1521C10.0038 36.3042 9.97707 36.4668 9.98376 36.6297C9.98376 37.3227 9.98376 38.0171 9.98376 38.7128C9.97989 38.8772 10.0094 39.0407 10.0704 39.1934C10.1314 39.3462 10.2227 39.485 10.3388 39.6014C10.4549 39.7179 10.5934 39.8097 10.746 39.8712C10.8985 39.9327 11.0619 39.9627 11.2263 39.9594H13.3094C13.4714 39.9626 13.6325 39.9335 13.7831 39.8738C13.9337 39.814 14.0709 39.7248 14.1866 39.6113C14.3023 39.4979 14.3942 39.3625 14.457 39.2131C14.5197 39.0637 14.552 38.9032 14.552 38.7412C14.552 38.6803 14.552 38.6194 14.552 38.5585H22.6733V38.7737C22.6733 39.0968 22.8016 39.4066 23.0301 39.6351C23.2585 39.8635 23.5684 39.9919 23.8915 39.9919H24.9716H26.0355C26.1964 39.9952 26.3563 39.966 26.5056 39.9059C26.6548 39.8459 26.7905 39.7563 26.9043 39.6425C27.018 39.5287 27.1077 39.3931 27.1677 39.2438C27.2277 39.0945 27.257 38.9346 27.2537 38.7737V38.591H35.3749C35.3749 38.6641 35.3749 38.7371 35.3749 38.8102C35.3803 39.1298 35.511 39.4344 35.7388 39.6585C35.9667 39.8826 36.2735 40.0082 36.5931 40.0081H36.7921H37.7585C37.9819 40.0081 38.2052 40.0081 38.4285 40.0081H38.5504C38.8312 40.0242 39.1104 39.9553 39.3516 39.8104C39.5928 39.6656 39.7848 39.4515 39.9025 39.196L39.9472 39.1107V36.3048L39.9107 36.2236C39.7936 35.9615 39.5976 35.7424 39.3502 35.5969C39.1027 35.4513 38.8161 35.3865 38.5301 35.4115V27.2902C38.8156 27.3122 39.101 27.2461 39.3479 27.1009C39.5947 26.9557 39.7912 26.7383 39.9107 26.4781L39.9472 26.3969V23.5991L39.9107 23.5179C39.7933 23.2586 39.5991 23.0416 39.3543 22.8964C39.1096 22.7511 38.8261 22.6846 38.5422 22.7057V14.5845C38.836 14.6154 39.1319 14.5528 39.3879 14.4055C39.6439 14.2582 39.8467 14.0337 39.9675 13.7642H39.9635ZM24.4072 11.6892H25.601V12.9074H24.4072V11.6892ZM11.6974 11.6892H12.8831V12.9074H11.6974V11.6892ZM11.6974 24.3909H12.9155V25.5969H11.6974V24.3909ZM12.9155 38.2945H11.6974V37.1048H12.9155V38.2945ZM25.6254 38.2945H24.4072V37.1088H25.6254V38.2945ZM36.8611 35.4155H36.8165C36.6313 35.3993 36.4448 35.4224 36.2691 35.4833C36.0935 35.5442 35.9327 35.6415 35.7972 35.7688C35.6681 35.9112 35.5702 36.0791 35.5101 36.2616C35.4499 36.4442 35.4288 36.6374 35.448 36.8286H27.3267C27.3267 36.7637 27.3267 36.6987 27.3267 36.6337C27.3267 36.3106 27.1984 36.0008 26.97 35.7723C26.7415 35.5439 26.4316 35.4155 26.1086 35.4155H23.9321C23.7751 35.415 23.6197 35.4455 23.4746 35.5053C23.3295 35.5651 23.1977 35.653 23.0867 35.764C22.9757 35.875 22.8878 36.0068 22.828 36.1519C22.7682 36.297 22.7377 36.4524 22.7382 36.6094V36.8286H14.5926C14.6125 36.6345 14.5906 36.4383 14.5282 36.2534C14.4659 36.0685 14.3646 35.8991 14.2312 35.7566C14.0941 35.6322 13.9329 35.5373 13.7575 35.478C13.5822 35.4186 13.3965 35.3959 13.212 35.4115H13.1754V27.2902H13.4109C13.7226 27.286 14.0203 27.16 14.2404 26.9392C14.4604 26.7184 14.5854 26.4203 14.5885 26.1086C14.5885 25.3817 14.5885 24.6427 14.5885 23.9036C14.5801 23.5862 14.448 23.2846 14.2204 23.0632C13.9929 22.8417 13.6879 22.7178 13.3703 22.7179H13.1551V14.5966H13.1957C13.3784 14.6126 13.5623 14.5909 13.7362 14.533C13.9102 14.475 14.0703 14.382 14.2068 14.2596C14.3423 14.1166 14.4455 13.9462 14.5092 13.7598C14.573 13.5734 14.5959 13.3755 14.5763 13.1795H22.6976V13.3947C22.6944 13.5532 22.7227 13.7107 22.781 13.8581C22.8393 14.0055 22.9264 14.1398 23.0371 14.2532C23.1479 14.3666 23.2801 14.4568 23.4261 14.5186C23.5721 14.5803 23.7289 14.6124 23.8874 14.6129H24.9838H26.0923C26.4014 14.6027 26.6951 14.4754 26.9138 14.2567C27.1324 14.0381 27.2598 13.7444 27.2699 13.4353C27.2699 13.3541 27.2699 13.2729 27.2699 13.1957H35.3912C35.3716 13.3876 35.3926 13.5815 35.4527 13.7648C35.5129 13.9481 35.6109 14.1166 35.7404 14.2596C35.8783 14.3872 36.0412 14.4848 36.2187 14.5463C36.3962 14.6078 36.5845 14.6318 36.7718 14.6169H36.8043V22.7382H36.585C36.4278 22.7366 36.2718 22.7664 36.1262 22.8258C35.9807 22.8852 35.8484 22.9731 35.7372 23.0843C35.626 23.1954 35.5382 23.3277 35.4787 23.4733C35.4193 23.6189 35.3896 23.7748 35.3912 23.9321C35.3912 24.6548 35.3912 25.3817 35.3912 26.1045C35.3912 26.4276 35.5195 26.7374 35.748 26.9659C35.9764 27.1943 36.2863 27.3227 36.6094 27.3227H36.8002L36.8611 35.4155ZM37.1373 11.6892H38.327V12.8871H37.1373V11.6892ZM38.3351 38.2986H37.1373V37.1088H38.3351V38.2986ZM38.3351 25.5888H37.117V24.399H38.3351V25.5888Z" fill="#2B7C80"/>
</g>
<defs>
<clipPath id="clip0_6_8">
<rect width="30" height="30" fill="white" transform="translate(10 10)"/>
</clipPath>
</defs>
</svg>
