<svg xmlns="http://www.w3.org/2000/svg" width="50" height="50" viewBox="0 0 50 50">
  <g id="dual_fiber" data-name="dual fiber" transform="translate(5548 14604)">
    <g id="Group_4491" data-name="Group 4491" transform="translate(-5554 -14692)">
      <rect id="Rectangle_2349" data-name="Rectangle 2349" width="50" height="50" rx="5" transform="translate(6 88)" fill="none"/>
    </g>
    <g id="Group_4483" data-name="Group 4483" transform="translate(239.211 1231.211)">
      <path id="Union_1" data-name="Union 1" d="M10.818,19.612V12.274l1.7-2.33a2.524,2.524,0,0,1-.254-.47,2.561,2.561,0,0,1-.192-.978,2.4,2.4,0,0,1,.209-.978,2.625,2.625,0,0,1,.552-.8,2.277,2.277,0,0,1,3.352,0,2.624,2.624,0,0,1,.552.8,2.4,2.4,0,0,1,.21.978,2.562,2.562,0,0,1-.192.978,2.509,2.509,0,0,1-.522.8,2.425,2.425,0,0,1-.775.538,2.382,2.382,0,0,1-1.671.086l-1.53,1.946v6.771ZM13.8,8.5a.712.712,0,1,0,1.424,0,.712.712,0,1,0-1.424,0ZM4.742,19.612V12.841L3.2,10.882a2.381,2.381,0,0,1-1.712-.072,2.425,2.425,0,0,1-.775-.538,2.509,2.509,0,0,1-.522-.8A2.561,2.561,0,0,1,0,8.5a2.4,2.4,0,0,1,.209-.978,2.625,2.625,0,0,1,.552-.8,2.423,2.423,0,0,1,1.676-.736,2.423,2.423,0,0,1,1.676.736,2.625,2.625,0,0,1,.552.8,2.4,2.4,0,0,1,.209.978,2.561,2.561,0,0,1-.192.978,2.528,2.528,0,0,1-.229.433l1.731,2.367v7.339ZM1.726,8.5a.712.712,0,1,0,1.424,0,.752.752,0,0,0-.712-.734A.752.752,0,0,0,1.726,8.5ZM7.672,19.6V4.891q-.083-.029-.164-.064a2.427,2.427,0,0,1-.775-.538,2.509,2.509,0,0,1-.522-.8,2.562,2.562,0,0,1-.192-.978,2.4,2.4,0,0,1,.21-.978,2.625,2.625,0,0,1,.552-.8A2.423,2.423,0,0,1,8.456,0a2.423,2.423,0,0,1,1.676.736,2.625,2.625,0,0,1,.552.8,2.4,2.4,0,0,1,.209.978,2.561,2.561,0,0,1-.192.978,2.508,2.508,0,0,1-.522.8,2.427,2.427,0,0,1-.775.538q-.083.036-.168.066V19.6ZM7.744,2.512a.712.712,0,1,0,1.424,0,.712.712,0,1,0-1.424,0Z" transform="translate(-5765.762 -15821.955) rotate(60)" fill="#2b7c80"/>
      <path id="Union_3" data-name="Union 3" d="M10.818,19.612V12.274l1.7-2.33a2.524,2.524,0,0,1-.254-.47,2.561,2.561,0,0,1-.192-.978,2.4,2.4,0,0,1,.209-.978,2.625,2.625,0,0,1,.552-.8,2.277,2.277,0,0,1,3.352,0,2.624,2.624,0,0,1,.552.8,2.4,2.4,0,0,1,.21.978,2.562,2.562,0,0,1-.192.978,2.509,2.509,0,0,1-.522.8,2.425,2.425,0,0,1-.775.538,2.382,2.382,0,0,1-1.671.086l-1.53,1.946v6.771ZM13.8,8.5a.712.712,0,1,0,1.424,0,.712.712,0,1,0-1.424,0ZM4.742,19.612V12.841L3.2,10.882a2.381,2.381,0,0,1-1.712-.072,2.425,2.425,0,0,1-.775-.538,2.509,2.509,0,0,1-.522-.8A2.561,2.561,0,0,1,0,8.5a2.4,2.4,0,0,1,.209-.978,2.625,2.625,0,0,1,.552-.8,2.423,2.423,0,0,1,1.676-.736,2.423,2.423,0,0,1,1.676.736,2.625,2.625,0,0,1,.552.8,2.4,2.4,0,0,1,.209.978,2.561,2.561,0,0,1-.192.978,2.528,2.528,0,0,1-.229.433l1.731,2.367v7.339ZM1.726,8.5a.712.712,0,1,0,1.424,0,.752.752,0,0,0-.712-.734A.752.752,0,0,0,1.726,8.5ZM7.672,19.6V4.891q-.083-.029-.164-.064a2.427,2.427,0,0,1-.775-.538,2.509,2.509,0,0,1-.522-.8,2.562,2.562,0,0,1-.192-.978,2.4,2.4,0,0,1,.21-.978,2.625,2.625,0,0,1,.552-.8A2.423,2.423,0,0,1,8.456,0a2.423,2.423,0,0,1,1.676.736,2.625,2.625,0,0,1,.552.8,2.4,2.4,0,0,1,.209.978,2.561,2.561,0,0,1-.192.978,2.508,2.508,0,0,1-.522.8,2.427,2.427,0,0,1-.775.538q-.083.036-.168.066V19.6ZM7.744,2.512a.712.712,0,1,0,1.424,0,.712.712,0,1,0-1.424,0Z" transform="translate(-5757.196 -15797.467) rotate(-120)" fill="#2b7c80"/>
      <path id="Subtraction_7" data-name="Subtraction 7" d="M22.5,45a22.666,22.666,0,0,1-4.535-.457A22.377,22.377,0,0,1,9.92,41.157a22.566,22.566,0,0,1-8.152-9.9A22.387,22.387,0,0,1,.457,27.035,22.667,22.667,0,0,1,0,22.5a20.69,20.69,0,0,1,.505-4.535,21.579,21.579,0,0,1,1.428-4.223A23.042,23.042,0,0,1,4.153,9.92,24.306,24.306,0,0,1,7.031,6.59a24.692,24.692,0,0,1,3.406-2.747,23.877,23.877,0,0,1,3.8-2.074A22.061,22.061,0,0,1,18.3.457a19.494,19.494,0,0,1,8.394,0,22.061,22.061,0,0,1,4.065,1.311,23.877,23.877,0,0,1,3.8,2.074A24.691,24.691,0,0,1,37.969,6.59a24.305,24.305,0,0,1,2.878,3.33,23.042,23.042,0,0,1,2.219,3.822,21.578,21.578,0,0,1,1.428,4.223A20.689,20.689,0,0,1,45,22.5a22.666,22.666,0,0,1-.457,4.535,22.377,22.377,0,0,1-3.386,8.045,22.566,22.566,0,0,1-9.9,8.152,22.387,22.387,0,0,1-4.223,1.311A22.666,22.666,0,0,1,22.5,45Zm0-43.651c-9.984,0-21.151,9.045-21.151,21.151a21.151,21.151,0,1,0,42.3,0C43.651,10.395,32.484,1.349,22.5,1.349Z" transform="translate(-5784.211 -15832.211)" fill="#2b7c80"/>
      <path id="Subtraction_10" data-name="Subtraction 10" d="M19.5,39a19.645,19.645,0,0,1-3.93-.4A19.393,19.393,0,0,1,8.6,35.67,19.557,19.557,0,0,1,1.532,27.09,19.4,19.4,0,0,1,.4,23.43a19.69,19.69,0,0,1,0-7.86A19.393,19.393,0,0,1,3.33,8.6,19.557,19.557,0,0,1,11.91,1.532,19.4,19.4,0,0,1,15.57.4a19.69,19.69,0,0,1,7.86,0A19.393,19.393,0,0,1,30.4,3.33a19.557,19.557,0,0,1,7.065,8.579A19.4,19.4,0,0,1,38.6,15.57a19.69,19.69,0,0,1,0,7.86A19.393,19.393,0,0,1,35.67,30.4a19.557,19.557,0,0,1-8.579,7.065A19.4,19.4,0,0,1,23.43,38.6,19.645,19.645,0,0,1,19.5,39Zm0-35.7c-7.646,0-16.2,6.927-16.2,16.2a16.2,16.2,0,0,0,32.4,0C35.7,10.229,27.146,3.3,19.5,3.3Z" transform="translate(-5781.211 -15829.211)" fill="#2b7c80"/>
    </g>
  </g>
</svg>
