<svg width="34" height="34" viewBox="0 0 34 34" fill="none" xmlns="http://www.w3.org/2000/svg">
<path d="M16.5 33C25.0604 33 32 26.0604 32 17.5C32 8.93959 25.0604 2 16.5 2C7.93959 2 1 8.93959 1 17.5C1 26.0604 7.93959 33 16.5 33Z" fill="#F5E0E0"/>
<path d="M16.2754 28.058C21.9823 28.058 26.6087 23.4316 26.6087 17.7246C26.6087 12.0177 21.9823 7.3913 16.2754 7.3913C10.5684 7.3913 5.94202 12.0177 5.94202 17.7246C5.94202 23.4316 10.5684 28.058 16.2754 28.058Z" fill="#DC3545"/>
<path d="M17.9976 20.8246H14.5531L14.5531 12.558H17.9976V20.8246Z" fill="white"/>
<path d="M16.2754 22.7535C15.3242 22.7535 14.5531 23.5246 14.5531 24.4757C14.5531 25.4269 15.3242 26.198 16.2754 26.198C17.2265 26.198 17.9976 25.4269 17.9976 24.4757C17.9976 23.5246 17.2265 22.7535 16.2754 22.7535Z" fill="white"/>
</svg>
