<svg xmlns="http://www.w3.org/2000/svg" width="19.816" height="21.617" viewBox="0 0 19.816 21.617">
  <path id="hand_icon" data-name="hand icon" d="M21.316,4.954v13.06a3.613,3.613,0,0,1-3.6,3.6H11.138a3.6,3.6,0,0,1-2.567-1.072L1.5,13.358s1.135-1.108,1.171-1.126a1.067,1.067,0,0,1,.712-.261,1.1,1.1,0,0,1,.54.144c.036.009,3.882,2.216,3.882,2.216V3.6a1.351,1.351,0,0,1,2.7,0V9.908h.9V1.351a1.351,1.351,0,0,1,2.7,0V9.908h.9V2.252a1.351,1.351,0,1,1,2.7,0V9.908h.9V4.954a1.351,1.351,0,0,1,2.7,0Z" transform="translate(-1.5)" fill="#6d6d6d"/>
</svg>
