<svg xmlns="http://www.w3.org/2000/svg" width="20.105" height="20.105" viewBox="0 0 20.105 20.105">
  <path id="Icon_ionic-ios-help-circle" data-name="Icon ionic-ios-help-circle" d="M13.428,3.375A10.053,10.053,0,1,0,23.48,13.428,10.051,10.051,0,0,0,13.428,3.375ZM13.22,18.067a1,1,0,1,1,1.039-1A1.009,1.009,0,0,1,13.22,18.067Zm1.943-4.683c-.841.488-1.126.846-1.126,1.464v.382H12.36l-.014-.416a2.012,2.012,0,0,1,1.141-2.127c.817-.488,1.16-.8,1.16-1.4a1.173,1.173,0,0,0-1.3-1.039,1.223,1.223,0,0,0-1.3,1.189H10.335c.034-1.556,1.184-2.658,3.127-2.658,1.812,0,3.059,1.005,3.059,2.45A2.366,2.366,0,0,1,15.163,13.384Z" transform="translate(-3.375 -3.375)" fill="#fff"/>
</svg>
