<svg xmlns="http://www.w3.org/2000/svg" width="411.68" height="346.432" viewBox="0 0 411.68 346.432">
  <g id="Group_105" data-name="Group 105" transform="translate(-22.091 -106.5)">
    <g id="Group_104" data-name="Group 104" transform="translate(22.091 106.5)">
      <ellipse id="Ellipse_22" data-name="Ellipse 22" cx="169.838" cy="11.724" rx="169.838" ry="11.724" transform="translate(28.409 278.193)" fill="#e5e5e5"/>
      <ellipse id="Ellipse_23" data-name="Ellipse 23" cx="205.84" cy="26.843" rx="205.84" ry="26.843" transform="translate(0 292.746)" fill="#e5e5e5"/>
      <g id="XMLID_2_" transform="translate(214.563 157.116)">
        <g id="Group_97" data-name="Group 97" transform="translate(0)">
          <g id="Group_96" data-name="Group 96">
            <g id="XMLID_5_">
              <g id="Group_95" data-name="Group 95">
                <path id="Path_46" data-name="Path 46" d="M679.576,602.981s16.641-1.219,16.425,18.776c-.195,17.825-13.265,18.793-16.1,18.793-.346,0-.54-.013-.54-.013H552.5v-6.293H679.144a12.148,12.148,0,0,0,9.293-11.774c.432-12.993-10.157-12.993-10.157-12.993H552.5v-6.5H679.576Z" transform="translate(-537.804 -545.494)" fill="#1eabbc"/>
                <path id="Path_47" data-name="Path 47" d="M882.88,771.67a.432.432,0,1,1,0,.864v-.864Z" transform="translate(-725.384 -641.279)"/>
                <path id="Path_48" data-name="Path 48" d="M882.88,782a.432.432,0,1,1,0,.864V782Z" transform="translate(-725.384 -647.144)"/>
                <path id="Path_49" data-name="Path 49" d="M882.88,793.67a.432.432,0,1,1,0,.865v-.865Z" transform="translate(-725.384 -653.77)"/>
                <path id="Path_50" data-name="Path 50" d="M688.883,773.976v6.246H551.555s-9.976-1.677-10.343-10.819c-.48-11.943,11.3-11.943,11.3-11.943H688.883V763.6H550.764a.432.432,0,0,0,0,.865h138.12v3.6H558.976a.432.432,0,0,0,0,.865H688.883v4.18H579.723a.432.432,0,0,0,0,.864Z" transform="translate(-531.387 -633.211)" fill="#e5e5e5"/>
                <path id="Path_51" data-name="Path 51" d="M738.922,794.1v.432H629.762a.432.432,0,0,1,0-.865h109.16Z" transform="translate(-581.426 -653.77)"/>
                <path id="Path_52" data-name="Path 52" d="M711.669,782.432v.432H581.762a.432.432,0,0,1,0-.864H711.669Z" transform="translate(-554.173 -647.144)"/>
                <path id="Path_53" data-name="Path 53" d="M700.882,772.534H562.762a.432.432,0,1,1,0-.864h138.12v.864Z" transform="translate(-543.385 -641.279)"/>
                <path id="Path_54" data-name="Path 54" d="M682.549,618.03s10.59,0,10.157,12.993a12.147,12.147,0,0,1-9.293,11.774H560.02v-6.051h117.7a.432.432,0,1,0,0-.864H560.02v-5.139H664.611a.432.432,0,1,0,0-.864H560.02v-5.52H668.5a.432.432,0,1,0,0-.864H560.02V618.03Z" transform="translate(-542.074 -554.047)" fill="#e5e5e5"/>
                <path id="Path_55" data-name="Path 55" d="M799.685,689.92s3.89,11.761,0,22.722L761,712.867V689.92h38.685Z" transform="translate(-656.184 -594.864)" fill="#a9d9ff"/>
                <path id="Path_56" data-name="Path 56" d="M677.721,659.33a.432.432,0,0,1,0,.865H560.02v-.865Z" transform="translate(-542.074 -577.496)"/>
                <path id="Path_57" data-name="Path 57" d="M668.5,630.67a.432.432,0,1,1,0,.864H560.02v-.864Z" transform="translate(-542.074 -561.223)"/>
                <path id="Path_58" data-name="Path 58" d="M664.611,645.44a.432.432,0,1,1,0,.864H560.02v-.864Z" transform="translate(-542.074 -569.609)"/>
                <path id="Path_59" data-name="Path 59" d="M678.486,689.92v22.947l-48.125.276H615.67V689.92Z" transform="translate(-573.67 -594.864)" fill="#fff"/>
                <path id="Path_60" data-name="Path 60" d="M617.913,527.47v.017H533.2v4.755H518.5V470h99.413Zm-23.557-23.613v-13.11H576.778v13.11Zm-37.6,7.685V486.135H527.577v25.407Z" transform="translate(-518.5 -470)" fill="#a9d9ff"/>
                <rect id="Rectangle_2256" data-name="Rectangle 2256" width="17.579" height="13.11" transform="translate(58.278 20.747)" fill="#fff"/>
                <path id="Path_61" data-name="Path 61" d="M561.919,713.131v.013H539.6a20.768,20.768,0,0,0-3.86.238l-13.014.073a41.309,41.309,0,0,1,0-23.535h39.19Z" transform="translate(-519.919 -594.864)" fill="#a9d9ff"/>
                <rect id="Rectangle_2257" data-name="Rectangle 2257" width="29.176" height="25.407" transform="translate(9.077 16.135)" fill="#fff"/>
                <path id="Path_62" data-name="Path 62" d="M559.452,659.762v.432a.432.432,0,1,1,0-.865Z" transform="translate(-541.506 -577.496)"/>
                <path id="Path_63" data-name="Path 63" d="M559.452,645.872v.432a.432.432,0,1,1,0-.864Z" transform="translate(-541.506 -569.609)"/>
                <path id="Path_64" data-name="Path 64" d="M559.452,631.1v.432a.432.432,0,1,1,0-.864Z" transform="translate(-541.506 -561.223)"/>
                <path id="Path_65" data-name="Path 65" d="M530.167,761.562c.367,9.142,10.343,10.819,10.343,10.819H681.456v5.783H540.268s-18.279,1.119-18.521-17.255c-.169-12.971,9.008-16.23,14.419-17.021l40.867-.238H681.456v5.969H541.47S529.687,749.619,530.167,761.562Z" transform="translate(-520.342 -625.37)" fill="#29818c"/>
              </g>
            </g>
          </g>
        </g>
      </g>
      <g id="XMLID_3_" transform="translate(31.473 134.64)">
        <g id="Group_100" data-name="Group 100">
          <g id="Group_99" data-name="Group 99">
            <g id="XMLID_6_">
              <g id="Group_98" data-name="Group 98">
                <path id="Path_66" data-name="Path 66" d="M257.3,418v55.183H169V418Zm-16.572,26.366V432.432H219.714v11.934Zm-35.426,5.762V438.6h-8.934v-8.5H178.219v10.374H187.3v9.652Z" transform="translate(-136.975 -418)" fill="#e5e5e5"/>
                <rect id="Rectangle_2258" data-name="Rectangle 2258" width="21.019" height="11.934" transform="translate(82.739 14.432)" fill="#fff"/>
                <path id="Path_67" data-name="Path 67" d="M208.23,706.33,204.418,735h-40.34L160.33,706.33h8.463c.048.1.073.164.073.169a.432.432,0,0,0,.4.264.469.469,0,0,0,.169-.035.431.431,0,0,0,.264-.4h12.245v.013a.431.431,0,0,0,.432.419h.013a.431.431,0,0,0,.419-.432h9.941v0a.433.433,0,0,0,.432.428h0a.433.433,0,0,0,.428-.432Z" transform="translate(-132.052 -581.705)" fill="#a9d9ff"/>
                <path id="Path_68" data-name="Path 68" d="M229.341,465.67v11.523H211.33v-9.652h9.077V465.67Z" transform="translate(-161.008 -445.065)" fill="#a9d9ff"/>
                <path id="Path_69" data-name="Path 69" d="M247.99,644.622c-.052.1-.1.186-.156.281a4.984,4.984,0,0,1-.225-.488c-.043-.112-.082-.229-.121-.346l-.138-.009c0-.022,0-.044,0-.069a31.412,31.412,0,0,1,14.065-13.279.431.431,0,0,1,.372.778A30.61,30.61,0,0,0,247.99,644.622Z" transform="translate(-181.459 -538.747)"/>
                <path id="Path_70" data-name="Path 70" d="M245.688,622.167c.069-1.738-1.011-3.773-1.167-5.537a20.229,20.229,0,0,1,.826-8.476c1.7-4.236,6.172-8.052,10.84-8.1,1.478-.013,3.345.341,4.763.009,2.312-.545,2.585-2.623,3.194-4.443,1.444-4.331,8.485-4.391,10.788-.86a11.518,11.518,0,0,1,1.69,8.792,16.914,16.914,0,0,1-5.55,8.031c-2.918,1.967-6.717,1.137-9.518,3.449a5.809,5.809,0,0,0-1.763,4.936c.333,1.954,1.859,3.341,2.023,5.442.337,4.421-4.923,4.828-8.247,4-1.975-.493-3.026-1.828-4.43-3.134a12.542,12.542,0,0,1-2.969-3.195c.052-.1.1-.186.156-.281a30.606,30.606,0,0,1,13.8-13.131.431.431,0,0,0-.372-.778A31.41,31.41,0,0,0,245.688,622.167Z" transform="translate(-179.793 -516.923)" fill="#a9d9ff"/>
                <path id="Path_71" data-name="Path 71" d="M235.33,680.871a43.358,43.358,0,0,1,5.074-19.165c.039-.074.082-.147.125-.216,0,.026,0,.047,0,.069l.138.009c.039.117.078.233.121.346a5.025,5.025,0,0,0,.225.489,42.5,42.5,0,0,0-4.815,18.465v0h-.864Z" transform="translate(-174.635 -556.246)"/>
                <path id="Path_72" data-name="Path 72" d="M235.762,706.33h.432a.433.433,0,0,1-.428.432h0a.433.433,0,0,1-.432-.428v0Z" transform="translate(-174.635 -581.705)"/>
                <path id="Path_73" data-name="Path 73" d="M178.38,598.185c2.822,2.044,3.16,6.151,1.331,9.107-2.019,3.263-7.05,7.287-11.165,6.086,0-.044-.013-.087-.022-.13-2.083-11.843-6.678-27.451-16.7-34.549a.434.434,0,0,0-.5.709c9.751,6.9,14.264,22.212,16.334,33.883a57.45,57.45,0,0,1-15.508-3.441c-3.069-1.12-6.946-3.6-6.63-7.344.177-2.1,1.742-3.419,3.32-4.577,1.215-.895,2.507-1.9,2.019-3.639-.5-1.768-2.663-1.906-4.188-2.555a14.58,14.58,0,0,1-5.87-3.925c-3.782-4.759-3.281-10.689,1.7-14.268a15.368,15.368,0,0,1,14.7-1.7c4.573,1.729,10.387,5.766,10.374,10.992-.009,3.968-1.729,7.058,1.617,10.2C171.871,595.544,175.458,596.067,178.38,598.185Z" transform="translate(-119.552 -504.711)" fill="#3e89fc"/>
                <path id="Path_74" data-name="Path 74" d="M208.484,454.5v1.872H190.33V446h18.154Z" transform="translate(-149.085 -433.898)" fill="#fff"/>
                <path id="Path_75" data-name="Path 75" d="M210.762,706.33h.432a.431.431,0,0,1-.419.432h-.013a.431.431,0,0,1-.432-.419v-.013Z" transform="translate(-160.441 -581.705)"/>
                <path id="Path_76" data-name="Path 76" d="M207.991,685.254a122.006,122.006,0,0,0-1.764-15.941c0-.035-.013-.069-.017-.1.147.013.294.022.441.03.112.012.22.017.333.022l.112.035a121.694,121.694,0,0,1,1.759,15.945v.013h-.864Z" transform="translate(-158.101 -560.629)"/>
                <path id="Path_77" data-name="Path 77" d="M180.381,706.33h.432a.431.431,0,0,1-.264.4.469.469,0,0,1-.169.035.431.431,0,0,1-.4-.264s-.026-.064-.073-.169Z" transform="translate(-143.169 -581.705)"/>
                <path id="Path_78" data-name="Path 78" d="M168.18,589.787a.434.434,0,0,1,.5-.709c10.019,7.1,14.614,22.705,16.7,34.549.009.043.017.086.022.13l-.112-.035c-.112,0-.22-.009-.333-.022-.147-.009-.294-.017-.441-.03C182.443,612,177.931,596.69,168.18,589.787Z" transform="translate(-136.405 -515.089)"/>
                <path id="Path_79" data-name="Path 79" d="M163.3,684.545a2.588,2.588,0,0,0,.246-.354s.013.009.017.012l.086.065c.073.061.151.117.225.182a25.488,25.488,0,0,1,7.456,9.142.393.393,0,0,1,.035.169h-.9a25.758,25.758,0,0,0-7.136-8.645.4.4,0,0,0-.056-.043c.056-.035.112-.069.173-.1l.151-.194C163.5,684.7,163.4,684.623,163.3,684.545Z" transform="translate(-133.721 -569.135)"/>
                <path id="Path_80" data-name="Path 80" d="M124.218,662.8l.086.065c.048.039.1.073.151.121A14.31,14.31,0,0,1,120.017,665a34.9,34.9,0,0,1-7.352.614,20.216,20.216,0,0,1-10.8-3.138c-3.134-1.828-6.276-4.806-6.881-8.662-.692-4.387,3.523-9.492,8.3-8.381,1.336.312,1.6,1.746,2.222,2.749a3,3,0,0,0,2.736,1.586c3.562.354,6.648-2.39,10.339-1.016a10.7,10.7,0,0,1,6.375,7.758c.311,1.526.657,4.089-.22,5.585a30.445,30.445,0,0,0-13.866-5.84.433.433,0,1,0-.138.856A29.508,29.508,0,0,1,124.218,662.8Z" transform="translate(-94.907 -547.044)" fill="#295fc5"/>
                <path id="Path_81" data-name="Path 81" d="M144.608,677.273l-.086-.065a29.5,29.5,0,0,0-13.49-5.68.433.433,0,1,1,.138-.856,30.445,30.445,0,0,1,13.866,5.84,2.581,2.581,0,0,1-.246.354c.1.078.2.152.294.233l-.151.195c-.061.03-.117.065-.173.1C144.7,677.346,144.655,677.312,144.608,677.273Z" transform="translate(-115.21 -561.456)"/>
              </g>
            </g>
          </g>
        </g>
      </g>
      <g id="XMLID_1_" transform="translate(113.097 0)">
        <g id="Group_103" data-name="Group 103">
          <g id="Group_102" data-name="Group 102">
            <g id="XMLID_4_">
              <g id="Group_101" data-name="Group 101">
                <path id="Path_82" data-name="Path 82" d="M734.851,285l-1.729,7.78L703.73,285Z" transform="translate(-522.201 -207.847)" fill="#e22953"/>
                <path id="Path_83" data-name="Path 83" d="M719.276,185.588,703.5,193.8l10.157-11.571Z" transform="translate(-522.071 -149.497)" fill="#e22953"/>
                <path id="Path_84" data-name="Path 84" d="M685.209,363.7l-4.322,4.685L669,347.75Z" transform="translate(-502.483 -243.474)" fill="#e22953"/>
                <path id="Path_85" data-name="Path 85" d="M658.573,114.958,641.5,135.489l8.212-23.989Z" transform="translate(-486.869 -109.339)" fill="#e22953"/>
                <path id="Path_86" data-name="Path 86" d="M552.2,340.032v.052a.431.431,0,0,0,.86.043q3.417.4,6.328.886a.425.425,0,0,0-.009.073.431.431,0,0,0,.855.074v0a86.393,86.393,0,0,1,13.978,3.488c1.344.48,2.014.787,2.014.787l-2.706,6.28c-.459-.134-.916-.268-1.375-.393a129.581,129.581,0,0,0-35.426-4.469c-1.042.022-1.612.052-1.612.052l-.488-7.78q1.543,0,3.021.026C543.07,339.237,547.919,339.57,552.2,340.032Z" transform="translate(-426.186 -238.574)" fill="#a9d9ff"/>
                <path id="Path_87" data-name="Path 87" d="M606.43,266.587a18.312,18.312,0,0,1,1.9-4.011,5.289,5.289,0,0,1,4.387-2.036c1.612,0,2.948.592,3.173,1.418.221.8-.644,1.85-2.373,2.874A14.087,14.087,0,0,1,606.43,266.587Z" transform="translate(-466.958 -193.959)" fill="#ffc962"/>
                <path id="Path_88" data-name="Path 88" d="M607.709,262.005a18.325,18.325,0,0,0-1.9,4.011,14.087,14.087,0,0,0,7.085-1.755c1.729-1.024,2.593-2.075,2.373-2.874-.225-.826-1.56-1.418-3.173-1.418A5.289,5.289,0,0,0,607.709,262.005Zm-2.369,4.037a19.58,19.58,0,0,1,2.014-4.288c3.173-4.5,13.04-1.444,5.762,2.879a14.783,14.783,0,0,1-7.486,1.82.388.388,0,0,0-.034-.173.417.417,0,0,0-.039-.074.265.265,0,0,0-.056-.065.327.327,0,0,0-.061-.048.359.359,0,0,0-.052-.035C605.37,266.055,605.357,266.047,605.34,266.042Z" transform="translate(-466.339 -193.388)"/>
                <path id="Path_89" data-name="Path 89" d="M605.4,275.94c-.03.086-.06.173-.086.259-.1,0-.2,0-.307,0A.425.425,0,0,0,605.4,275.94Z" transform="translate(-466.151 -202.703)"/>
                <path id="Path_90" data-name="Path 90" d="M605.84,274.97a.419.419,0,0,1,.039.073A.243.243,0,0,0,605.84,274.97Z" transform="translate(-466.623 -202.152)"/>
                <path id="Path_91" data-name="Path 91" d="M605.369,274.754a.239.239,0,0,1,.039.073.38.38,0,0,1,.035.173c-.143,0-.29,0-.432,0,.048-.138.1-.272.143-.406.017,0,.03.013.048.017a.218.218,0,0,1,.052.035.326.326,0,0,1,.06.048A.262.262,0,0,1,605.369,274.754Z" transform="translate(-466.151 -201.936)"/>
                <path id="Path_92" data-name="Path 92" d="M604.32,265.443a19.663,19.663,0,0,1,2.1-4.5,6.149,6.149,0,0,1,5.1-2.4c2.062,0,3.67.821,4.007,2.053.238.864-.052,2.235-2.766,3.847a15.147,15.147,0,0,1-7.806,1.88h-.026c.026-.086.056-.173.086-.259a.385.385,0,0,0,.039-.173,14.782,14.782,0,0,0,7.486-1.82c7.279-4.322-2.589-7.383-5.762-2.879a19.58,19.58,0,0,0-2.014,4.288.259.259,0,0,0-.1-.022.016.016,0,0,0-.013,0h-.031C604.514,265.451,604.419,265.447,604.32,265.443Z" transform="translate(-465.76 -192.824)"/>
                <path id="Path_93" data-name="Path 93" d="M553.5,222.992a15.15,15.15,0,0,0,7.806-1.88c2.714-1.612,3-2.982,2.766-3.847-.337-1.232-1.945-2.053-4.007-2.053a6.149,6.149,0,0,0-5.1,2.4,19.625,19.625,0,0,0-2.1,4.5,29.522,29.522,0,0,1-10.088-2.256,31.212,31.212,0,0,0-.592-6.315,3.488,3.488,0,0,0-3.458-2.226,3.567,3.567,0,0,0-2.827,1.241,3.034,3.034,0,0,0-.449,2.732c.411,1.6,2.883,3.57,6.484,5.148.211,6.371.125,15.176.1,17.311l-1.232-.147a.429.429,0,0,0-.337.1.424.424,0,0,0-.147.324v8.58a39.085,39.085,0,0,1-16.676-9.362,30.959,30.959,0,0,1-9.915-23.686c.787-18.18,18.219-32.188,38.94-31.294s36.878,16.36,36.091,34.535c-.545,12.591-9.073,23.181-21.149,28.2a41.52,41.52,0,0,1-17.786,3.09c-.216-.009-.432-.022-.648-.035l1.8-8.792a.44.44,0,0,0-.073-.341.426.426,0,0,0-.3-.173l-1.111-.13a140.927,140.927,0,0,1,3.977-15.634Z" transform="translate(-414.312 -149.495)" fill="#ffc962"/>
                <path id="Path_94" data-name="Path 94" d="M605.631,274.758a.33.33,0,0,0-.061-.048A.33.33,0,0,1,605.631,274.758Z" transform="translate(-466.469 -202.004)"/>
                <path id="Path_95" data-name="Path 95" d="M605.5,274.665a.216.216,0,0,0-.052-.035A.356.356,0,0,1,605.5,274.665Z" transform="translate(-466.401 -201.959)"/>
                <path id="Path_96" data-name="Path 96" d="M605.388,274.607c-.017,0-.03-.013-.047-.017C605.357,274.594,605.37,274.6,605.388,274.607Z" transform="translate(-466.339 -201.936)"/>
                <path id="Path_97" data-name="Path 97" d="M605.083,274.534a.015.015,0,0,0-.013,0A.015.015,0,0,1,605.083,274.534Z" transform="translate(-466.186 -201.902)"/>
                <path id="Path_98" data-name="Path 98" d="M604.828,275.53c.143,0,.29,0,.432,0a.384.384,0,0,1-.039.173.425.425,0,0,1-.393.255h0a.352.352,0,0,1-.134-.026C604.733,275.8,604.781,275.664,604.828,275.53Z" transform="translate(-465.97 -202.47)"/>
                <path id="Path_99" data-name="Path 99" d="M604.438,274.53h.031a.015.015,0,0,1,.013,0,.259.259,0,0,1,.1.022c-.047.134-.1.268-.143.406-.143,0-.285,0-.432-.013a.345.345,0,0,1,.026-.13l.026-.065A.437.437,0,0,1,604.438,274.53Z" transform="translate(-465.584 -201.902)"/>
                <path id="Path_100" data-name="Path 100" d="M604.506,274.519a.438.438,0,0,0-.376.225c.026-.078.052-.16.082-.233C604.312,274.514,604.407,274.519,604.506,274.519Z" transform="translate(-465.652 -201.891)"/>
                <path id="Path_101" data-name="Path 101" d="M604.813,276.5c-.048,0-.1,0-.143,0,0-.009,0-.017.009-.022A.349.349,0,0,0,604.813,276.5Z" transform="translate(-465.958 -203.004)"/>
                <path id="Path_102" data-name="Path 102" d="M604.442,275.513c-.047.134-.1.268-.138.406a.4.4,0,0,1-.216-.16.41.41,0,0,1-.078-.259C604.156,275.509,604.3,275.513,604.442,275.513Z" transform="translate(-465.583 -202.453)"/>
                <path id="Path_103" data-name="Path 103" d="M604.013,275.2a.347.347,0,0,0-.026.13h-.017C603.982,275.286,604,275.243,604.013,275.2Z" transform="translate(-465.56 -202.283)"/>
                <path id="Path_104" data-name="Path 104" d="M603.871,275.759a.4.4,0,0,0,.216.16s0,.013-.009.022c-.147,0-.3,0-.45-.013.047-.147.1-.29.147-.428h.017A.41.41,0,0,0,603.871,275.759Z" transform="translate(-465.367 -202.453)"/>
                <path id="Path_105" data-name="Path 105" d="M590.815,273.651a142.863,142.863,0,0,0-3.933,15.552l-5.736-.674c.022-1.932.112-10.594-.086-17.039A30.008,30.008,0,0,0,590.815,273.651Z" transform="translate(-452.553 -200.176)" fill="#ffc962"/>
                <path id="Path_106" data-name="Path 106" d="M594.7,330.526c.216.013.432.026.648.035a41.521,41.521,0,0,0,17.786-3.09v0l-5.278,10.555a86.369,86.369,0,0,0-13.978-3.488Z" transform="translate(-459.832 -231.96)" fill="#ffc962"/>
                <path id="Path_107" data-name="Path 107" d="M597.015,313.354l-1.8,8.792-.432-.026,1.811-8.852-1.137-.134c.009-.061.039-.2.078-.424l1.111.13a.427.427,0,0,1,.3.173A.439.439,0,0,1,597.015,313.354Z" transform="translate(-460.343 -223.58)"/>
                <path id="Path_108" data-name="Path 108" d="M586.143,313.5l-1.729,8.441a41.583,41.583,0,0,1-7.123-1.167V312.46l1.189.138,6.613.778Z" transform="translate(-450.413 -223.438)" fill="#ffc962"/>
                <path id="Path_109" data-name="Path 109" d="M565.665,422.59c1.4.216,1.081,3.566-3.242,7.348s-11.986,5.087-14.964,6.272c-1.811-1.474-4.348-3.285-5.839-4.331,0,0,4.595-12.422,5.891-11.234s1.081,6.267,1.081,6.267S564.26,422.374,565.665,422.59Z" transform="translate(-430.161 -284.816)" fill="#fda181"/>
                <path id="Path_110" data-name="Path 110" d="M599.935,276.529a140.938,140.938,0,0,0-3.977,15.634l-.427-.052a141.342,141.342,0,0,1,3.951-15.591c.048,0,.1,0,.143,0h0C599.732,276.524,599.831,276.529,599.935,276.529Z" transform="translate(-460.77 -203.032)"/>
                <path id="Path_111" data-name="Path 111" d="M593.77,322.642,595.5,314.2l-1.05-.125v0a.43.43,0,0,0,.424-.35s0-.013.009-.03l1.137.134-1.811,8.852C594.06,322.667,593.913,322.655,593.77,322.642Z" transform="translate(-459.77 -224.136)"/>
                <path id="Path_112" data-name="Path 112" d="M594.145,334.506l-.821,4.015c-.138-.026-.281-.048-.423-.074l.813-3.968Z" transform="translate(-459.276 -235.94)"/>
                <path id="Path_113" data-name="Path 113" d="M594.53,292.042a142.89,142.89,0,0,1,3.933-15.552c.152.009.3.013.45.013a141.472,141.472,0,0,0-3.951,15.591Z" transform="translate(-460.201 -203.015)"/>
                <path id="Path_114" data-name="Path 114" d="M595.85,312.642c-.039.22-.069.363-.078.424l-.432-.052s.03-.147.082-.424Z" transform="translate(-460.661 -223.511)"/>
                <path id="Path_115" data-name="Path 115" d="M594.354,312.863c0-.013.026-.147.074-.393l.432.052c-.052.277-.082.424-.082.424l-.428-.052C594.35,312.885,594.354,312.872,594.354,312.863Z" transform="translate(-460.099 -223.443)"/>
                <path id="Path_116" data-name="Path 116" d="M594.69,313.925a.427.427,0,0,1-.346-.475l.428.052.432.052c0,.017-.009.026-.009.03a.431.431,0,0,1-.424.35A.59.59,0,0,1,594.69,313.925Z" transform="translate(-460.094 -224)"/>
                <path id="Path_117" data-name="Path 117" d="M592.72,334.4c.143.013.29.026.437.035l-.813,3.968c-.138-.022-.281-.048-.424-.069v-.017Z" transform="translate(-458.72 -235.895)"/>
                <path id="Path_118" data-name="Path 118" d="M581.249,310.91l5.736.674c-.048.246-.074.38-.074.393s0,.022,0,.03l-5.666-.661a.162.162,0,0,0,0-.048C581.245,311.286,581.245,311.152,581.249,310.91Z" transform="translate(-452.656 -222.558)"/>
                <path id="Path_119" data-name="Path 119" d="M577.284,331.7a41.594,41.594,0,0,0,7.123,1.167l-.8,3.916v.017q-2.911-.486-6.328-.886a.164.164,0,0,0,0-.048V331.7Z" transform="translate(-450.407 -234.362)" fill="#ffc962"/>
                <path id="Path_120" data-name="Path 120" d="M592.332,343.569c.143.026.285.048.423.074v0a.43.43,0,1,1-.847-.147C592.051,343.522,592.194,343.548,592.332,343.569Z" transform="translate(-458.708 -241.061)"/>
                <path id="Path_121" data-name="Path 121" d="M580.98,269.29a29.521,29.521,0,0,0,10.088,2.256c-.03.073-.056.156-.082.233l-.026.065c-.013.043-.03.086-.044.13A29.751,29.751,0,0,1,581,269.765c0-.061,0-.121-.009-.182v-.013C580.989,269.476,580.984,269.381,580.98,269.29Z" transform="translate(-452.508 -198.927)"/>
                <path id="Path_122" data-name="Path 122" d="M581.03,270.39a29.753,29.753,0,0,0,9.915,2.209c-.052.138-.1.281-.147.428a30,30,0,0,1-9.755-2.161C581.039,270.706,581.034,270.546,581.03,270.39Z" transform="translate(-452.536 -199.552)"/>
                <path id="Path_123" data-name="Path 123" d="M580.682,311.231a.157.157,0,0,1,0,.048l-.428-.052s0-.156,0-.437l.432.052C580.682,311.084,580.682,311.218,580.682,311.231Z" transform="translate(-452.093 -222.489)"/>
                <path id="Path_124" data-name="Path 124" d="M580.141,288.238c.026-2.031.117-10.724-.091-17.168.147.061.294.121.437.182.2,6.445.108,15.107.087,17.039Z" transform="translate(-451.98 -199.938)"/>
                <path id="Path_125" data-name="Path 125" d="M580.481,270.843c-.142-.061-.29-.121-.437-.182,0-.017,0-.03,0-.043a.457.457,0,0,0,.233-.078.41.41,0,0,0,.151-.19.131.131,0,0,0,.044.017C580.472,270.523,580.477,270.683,580.481,270.843Z" transform="translate(-451.974 -199.529)"/>
                <path id="Path_126" data-name="Path 126" d="M580.93,270.134a.421.421,0,0,0,.035-.164c0,.061,0,.121.009.182A.13.13,0,0,1,580.93,270.134Z" transform="translate(-452.48 -199.313)"/>
                <path id="Path_127" data-name="Path 127" d="M580.628,269.148c0,.091.009.186.013.281a.45.45,0,0,0-.281-.389.026.026,0,0,1,.017,0Z" transform="translate(-452.156 -198.785)"/>
                <path id="Path_128" data-name="Path 128" d="M580.01,269.97c.13.056.264.112.4.164a.4.4,0,0,1-.151.19.457.457,0,0,1-.233.078C580.019,270.255,580.014,270.113,580.01,269.97Z" transform="translate(-451.957 -199.313)"/>
                <path id="Path_129" data-name="Path 129" d="M579.687,310.728c0,.281,0,.437,0,.437l-.432-.052c0-.069,0-.216,0-.432Z" transform="translate(-451.526 -222.427)"/>
                <path id="Path_130" data-name="Path 130" d="M586.653,313.07l-6.613-.778a.536.536,0,0,0,.086.009h0a.43.43,0,0,0,.428-.38l5.666.661a.427.427,0,0,0,.346.475.582.582,0,0,0,.082.009v0Z" transform="translate(-451.974 -223.131)"/>
                <path id="Path_131" data-name="Path 131" d="M579.13,287.941c.026-2.135.112-10.94-.1-17.311.082.039.169.073.255.112l.186.078c.208,6.445.117,15.137.091,17.168Z" transform="translate(-451.401 -199.688)"/>
                <path id="Path_132" data-name="Path 132" d="M579.97,268.969a.378.378,0,0,1,.169.03.448.448,0,0,1,.28.389v.013a.422.422,0,0,1-.035.164c-.134-.052-.268-.108-.4-.164C579.983,269.254,579.979,269.112,579.97,268.969Z" transform="translate(-451.934 -198.744)"/>
                <path id="Path_133" data-name="Path 133" d="M579.806,270.968l-.186-.078a.452.452,0,0,0,.169.035h.013C579.8,270.938,579.806,270.951,579.806,270.968Z" transform="translate(-451.736 -199.836)"/>
                <path id="Path_134" data-name="Path 134" d="M579.488,269.4c-.134-.056-.263-.117-.4-.173a.432.432,0,0,1,.216-.22.279.279,0,0,1,.078-.026.3.3,0,0,1,.086-.013C579.479,269.113,579.483,269.255,579.488,269.4Z" transform="translate(-451.435 -198.745)"/>
                <path id="Path_135" data-name="Path 135" d="M579.668,269a.279.279,0,0,0-.078.026A.546.546,0,0,1,579.668,269Z" transform="translate(-451.719 -198.762)"/>
                <path id="Path_136" data-name="Path 136" d="M579.274,270.141a.425.425,0,0,1-.264-.38.4.4,0,0,1,.009-.1.254.254,0,0,1,.026-.082v0c.135.056.264.117.4.173,0,.143.009.285.013.432h-.013A.452.452,0,0,1,579.274,270.141Z" transform="translate(-451.389 -199.086)"/>
                <path id="Path_137" data-name="Path 137" d="M579.25,311.68l.432.052.428.052a.431.431,0,0,1-.428.38h0a.529.529,0,0,1-.086-.009.431.431,0,0,1-.341-.428Z" transform="translate(-451.526 -222.995)"/>
                <path id="Path_138" data-name="Path 138" d="M579.01,270.01a.426.426,0,0,0,.264.38c-.087-.039-.173-.073-.255-.112C579.014,270.187,579.014,270.1,579.01,270.01Z" transform="translate(-451.389 -199.336)"/>
                <path id="Path_139" data-name="Path 139" d="M579.056,269.58a.26.26,0,0,0-.026.082A.3.3,0,0,1,579.056,269.58Z" transform="translate(-451.401 -199.092)"/>
                <path id="Path_140" data-name="Path 140" d="M571.446,258.826c-3.069-1.409-5.291-3.138-5.61-4.4a2.214,2.214,0,0,1,.294-1.984,2.7,2.7,0,0,1,2.144-.908,2.673,2.673,0,0,1,2.637,1.634A27.485,27.485,0,0,1,571.446,258.826Z" transform="translate(-443.851 -188.843)" fill="#ffc962"/>
                <path id="Path_141" data-name="Path 141" d="M576.29,311.33l1.279.151v.048a.431.431,0,0,0,.341.428l-1.189-.138v8.316c-.147-.035-.29-.069-.432-.108Z" transform="translate(-449.845 -222.796)"/>
                <path id="Path_142" data-name="Path 142" d="M576.29,335.725V331.45c.143.039.285.073.432.108v4.167a.16.16,0,0,1,0,.048C576.575,335.755,576.433,335.742,576.29,335.725Z" transform="translate(-449.845 -234.22)"/>
                <path id="Path_143" data-name="Path 143" d="M575.774,310.337l1.232.147c0,.216,0,.363,0,.432l-1.279-.151v8.7l-.432-.117v-8.58a.424.424,0,0,1,.147-.324A.429.429,0,0,1,575.774,310.337Z" transform="translate(-449.277 -222.23)"/>
                <path id="Path_144" data-name="Path 144" d="M575.722,331.3v4.275c-.143-.017-.29-.03-.432-.048V331.18Z" transform="translate(-449.277 -234.066)"/>
                <path id="Path_145" data-name="Path 145" d="M575.722,341.278c.143.017.285.03.428.048a.431.431,0,0,1-.86-.043v-.052C575.433,341.247,575.58,341.26,575.722,341.278Z" transform="translate(-449.277 -239.772)"/>
                <path id="Path_146" data-name="Path 146" d="M553.385,318.882v4.344c-4.279-.462-9.129-.8-14.557-.886l-2.118-12.82A39.088,39.088,0,0,0,553.385,318.882Z" transform="translate(-427.373 -221.768)" fill="#ffc962"/>
                <path id="Path_147" data-name="Path 147" d="M565.414,106.5l-.951,19.667L560.02,106.5Z" transform="translate(-440.607 -106.5)" fill="#e22953"/>
                <path id="Path_148" data-name="Path 148" d="M545.319,373.1a146.768,146.768,0,0,1,28.908,3.747l-.091.38-1.081,5.554a207.814,207.814,0,0,0-27.663-3.674l-.082-5.692Z" transform="translate(-432.256 -257.867)" fill="#295fc5"/>
                <path id="Path_149" data-name="Path 149" d="M570.342,252.6a2.672,2.672,0,0,0-2.637-1.634,2.7,2.7,0,0,0-2.144.908,2.216,2.216,0,0,0-.294,1.984c.32,1.266,2.542,3,5.61,4.4A27.4,27.4,0,0,0,570.342,252.6Zm-5.494,1.366c-1.007-3.972,4.9-4.525,5.9-1.5a31.883,31.883,0,0,1,.566,6.038.3.3,0,0,0-.087.013.569.569,0,0,0-.078.026.432.432,0,0,0-.216.22C567.628,257.283,565.225,255.442,564.849,253.964Z" transform="translate(-443.284 -188.278)"/>
                <path id="Path_150" data-name="Path 150" d="M570.183,251.894c-1.007-3.026-6.911-2.472-5.9,1.5.376,1.478,2.779,3.32,6.09,4.8v0a.3.3,0,0,0-.026.082.4.4,0,0,0-.009.1c0,.086,0,.177.009.268-3.6-1.578-6.073-3.544-6.483-5.148a3.034,3.034,0,0,1,.449-2.732,3.567,3.567,0,0,1,2.827-1.24,3.488,3.488,0,0,1,3.458,2.226,31.207,31.207,0,0,1,.592,6.315l-.251-.1a.027.027,0,0,0-.017,0,.378.378,0,0,0-.169-.03A31.821,31.821,0,0,0,570.183,251.894Z" transform="translate(-442.714 -187.708)"/>
                <path id="Path_151" data-name="Path 151" d="M533.978,445.61c1.491,1.046,4.029,2.857,5.84,4.331a9.564,9.564,0,0,1,2.1,2.049c.143.311-1.184,1.547-3.38,3.294-3.254-3.337-10.382-7.663-10.382-7.663,2.7-1.681,4.577-2.87,4.577-2.87S533.226,445.083,533.978,445.61Z" transform="translate(-422.518 -298.548)" fill="#a9d9ff"/>
                <path id="Path_152" data-name="Path 152" d="M574.715,362.164l-2.269,5.9c-.51-.134-1.02-.259-1.53-.38a146.769,146.769,0,0,0-28.908-3.747c-1.033-.026-1.6-.026-1.6-.026l-.916-6.393-.009-.54a129.585,129.585,0,0,1,35.426,4.469Z" transform="translate(-428.946 -248.703)" fill="#3e89fc"/>
                <path id="Path_153" data-name="Path 153" d="M498.123,149.14l3.843,17.661L490.9,151.085Z" transform="translate(-401.363 -130.71)" fill="#e22953"/>
                <path id="Path_154" data-name="Path 154" d="M477.8,319.5l-15.776,12.211L459,326.079Z" transform="translate(-383.251 -227.435)" fill="#e22953"/>
                <path id="Path_155" data-name="Path 155" d="M451.529,243.725l-24.719-3.432,1.811-7.793Z" transform="translate(-364.975 -178.039)" fill="#e22953"/>
                <path id="Path_156" data-name="Path 156" d="M462.221,490.375c-3.674.756-15.02-6.916-15.02-6.916l-.333-.1a13.392,13.392,0,0,0,.549-2.382c.108-1.266-1.215-4.923-2.537-8.2,4.223,6.306,11.108,14.985,18.249,17.276A4.7,4.7,0,0,1,462.221,490.375Z" transform="translate(-375.235 -314.457)" fill="#29818c"/>
                <path id="Path_157" data-name="Path 157" d="M428.282,864.29a23.918,23.918,0,0,0,12.388,0l.229,2.14s12.643,2.593,15.128,3.466,2.053,5.61,2.053,5.61l-30.58-1.837Z" transform="translate(-365.367 -536.75)" fill="#1e1950"/>
                <path id="Path_158" data-name="Path 158" d="M416.288,596.5v0c1.889-.281,3.769-.639,5.6-1.089,15.884-3.89,16.533-5.4,16.533-5.4s.4,45.743-3.492,70.164c0,0-.614,44.053-2.127,48.159,0,0-.272.1-.769.238a23.908,23.908,0,0,1-12.388,0c-.259-.069-.519-.147-.782-.233,0,0,.143-40.954.791-46.573s-7.1-49.6-7.1-49.6l-.268-.069C414.615,603.036,416.288,596.5,416.288,596.5Z" transform="translate(-356.731 -381.016)" fill="#29818c"/>
                <path id="Path_159" data-name="Path 159" d="M407.287,404.25s11.86,2.157,5.1,11.856c-2.3.121-5.675.415-8.23.653-2.053.194-3.57.35-3.57.35l-1.18-4.646-.657-2.593S406.962,406.2,407.287,404.25Z" transform="translate(-349.043 -275.553)" fill="#1e1950"/>
                <path id="Path_160" data-name="Path 160" d="M407.285,449.6v2.3l-7.335-4.642Z" transform="translate(-349.725 -299.973)" fill="#295fc5"/>
                <path id="Path_161" data-name="Path 161" d="M402.6,433.19l2.446,8.42-7.335-2.338L396,438.727l3.026-5.187S400.543,433.385,402.6,433.19Z" transform="translate(-347.482 -291.984)" fill="#a9d9ff"/>
                <path id="Path_162" data-name="Path 162" d="M375.666,362.826c.4-.086.588-.774.419-1.53s-.622-1.305-1.02-1.219-.588.774-.424,1.53S375.268,362.913,375.666,362.826Zm4.417-2.6c.169.761.627,1.305,1.024,1.219s.588-.774.419-1.534-.622-1.305-1.02-1.215S379.919,359.463,380.084,360.224Zm-.873,2.619a29.019,29.019,0,0,0,1.867,5.546l1.872-2.377A14.424,14.424,0,0,1,379.21,362.844Zm-16.719,5.221a3.221,3.221,0,0,1,3.674-3.242l.151-2.81a22.467,22.467,0,0,0,5.6-5.459c.156-.043.3-.082.432-.112a7.526,7.526,0,0,1,2.166,0,.433.433,0,0,0,.182-.847,7.642,7.642,0,0,0-2.135-.043,9.381,9.381,0,0,0,1.063-7.8,9.063,9.063,0,0,1,8.013,6.112,9.1,9.1,0,0,0-2.269.743.432.432,0,0,0,.2.817.463.463,0,0,0,.2-.047,8.217,8.217,0,0,1,2.083-.679.3.3,0,0,1,.061-.009c.458,1.392.964,2.935,1.47,4.508,1.772,5.537,3.566,11.506,3.32,12.976-.324,1.945-8.537,5.619-8.537,5.619a8.464,8.464,0,0,1-5.511-.488,9.026,9.026,0,0,0,6.168,3.082L380,385.03l-3.026,5.187-8.1-2.485c3.458-8.32-1.189-16.749-1.189-16.749S362.276,371.739,362.492,368.065Zm18.314,5.654c1.5-1.007,1.643-3.384,1.643-3.384a19.514,19.514,0,0,1-6.7.864S379.31,374.73,380.805,373.718Z" transform="translate(-328.454 -243.474)" fill="#fda181"/>
                <path id="Path_163" data-name="Path 163" d="M404.919,385.838l-1.872,2.377a29.013,29.013,0,0,1-1.867-5.546A14.423,14.423,0,0,0,404.919,385.838Z" transform="translate(-350.423 -263.301)" fill="#f77556"/>
                <path id="Path_164" data-name="Path 164" d="M399.87,400s-.147,2.377-1.642,3.384-5.057-2.52-5.057-2.52A19.512,19.512,0,0,0,399.87,400Z" transform="translate(-345.875 -273.14)" fill="#fff"/>
                <path id="Path_165" data-name="Path 165" d="M408.7,362.482a5.9,5.9,0,0,0-1.638.06c-.043-.138-.091-.277-.134-.415-.017-.048-.03-.1-.048-.147-.03-.091-.061-.177-.091-.264l.061-.013a6.56,6.56,0,0,1,1.954-.078.431.431,0,1,1-.1.856Z" transform="translate(-353.608 -251.33)"/>
                <path id="Path_166" data-name="Path 166" d="M404.147,375.806c-.4.086-.856-.458-1.024-1.219s.026-1.444.424-1.53.856.458,1.02,1.215S404.544,375.72,404.147,375.806Z" transform="translate(-351.492 -257.837)" fill="#231f20"/>
                <path id="Path_167" data-name="Path 167" d="M403.714,362.724a8.218,8.218,0,0,0-2.083.679.463.463,0,0,1-.2.048.432.432,0,0,1-.2-.817,9.1,9.1,0,0,1,2.269-.743c.03.086.06.173.091.264.017.048.03.1.047.147.043.138.091.277.134.415A.3.3,0,0,0,403.714,362.724Z" transform="translate(-350.321 -251.502)"/>
                <path id="Path_168" data-name="Path 168" d="M391.511,416.608l.657,2.593A9.026,9.026,0,0,1,386,416.12,8.464,8.464,0,0,0,391.511,416.608Z" transform="translate(-341.804 -282.293)" fill="#f77556"/>
                <path id="Path_169" data-name="Path 169" d="M383.112,442.735l-4.18,6.626-4.219-6.622,0,0-1.409-2.209v0l1.707-.272Z" transform="translate(-334.594 -295.993)" fill="#a9d9ff"/>
                <path id="Path_170" data-name="Path 170" d="M390.956,376.258c.4-.086.856.458,1.02,1.219s-.022,1.444-.419,1.53-.856-.458-1.024-1.219S390.558,376.345,390.956,376.258Z" transform="translate(-344.344 -259.655)" fill="#231f20"/>
                <path id="Path_171" data-name="Path 171" d="M381.078,456.374,376.57,446l4.219,6.622,4.18-6.626,1.707.545Z" transform="translate(-336.45 -299.258)" fill="#29818c"/>
                <path id="Path_172" data-name="Path 172" d="M386.9,366.609a7.525,7.525,0,0,0-2.165,0c-.134.03-.277.069-.432.112.125-.177.242-.359.359-.54h0c.1-.151.19-.307.281-.467a7.641,7.641,0,0,1,2.135.043.433.433,0,1,1-.182.847Z" transform="translate(-340.839 -253.645)"/>
                <path id="Path_173" data-name="Path 173" d="M379.731,366.8a7.858,7.858,0,0,0-2.736,1.184.428.428,0,0,1-.609.013.431.431,0,0,1-.013-.609c.817-.864,3.333-1.483,3.618-1.547l.065-.013c.052,0,.164-.022.32-.035-.091.16-.186.315-.281.467h0C379.973,366.438,379.856,366.62,379.731,366.8Z" transform="translate(-336.27 -253.717)"/>
                <path id="Path_174" data-name="Path 174" d="M322.48,499.395c.022-.865-1.612-4.8-1.612-4.8l1-.472s5.991-12.777,5.342-16.235c-.294-1.578-5.252-13.7-7.888-20.081-.968-2.338-1.621-3.907-1.621-3.907l-.346-.069-2.546,12.461-3.916,7.383,8.606,16.04a24.477,24.477,0,0,0-9.764,4.789c-4.028-6.523-11.407-18.56-11.484-19.424-.108-1.189,14.7-35.551,15.236-36.2a11.65,11.65,0,0,1,2.831-.756c3.989-.826,11.117-2.006,14.372-2.537v0L332.1,437.8l0,0,4.508,10.369,5.6-9.829,7.335,4.642v-2.3l-2.446-8.42c2.554-.238,5.93-.532,8.23-.653a10.175,10.175,0,0,1,2.572.03c.756.432,19.45,19.883,20.747,19.775.921-.078,12.392-7.171,18.979-11.286,0,0,7.128,4.327,10.382,7.663-7.136,5.68-23.444,16.745-28.13,18.854-7.14-2.291-14.026-10.97-18.249-17.276,1.323,3.281,2.645,6.937,2.537,8.2a13.4,13.4,0,0,1-.549,2.382c-1.007,3.35-3.017,8.208-3.017,8.208s10.374,18.91,13.075,31.877c0,0-.648,1.513-16.533,5.4-1.833.45-3.713.808-5.6,1.089-14.484,2.191-29.595,0-29.595,0C322.255,503.281,322.467,499.836,322.48,499.395Z" transform="translate(-291.982 -291.059)" fill="#1eabbc"/>
                <path id="Path_175" data-name="Path 175" d="M343.87,360.606c-.216,3.674,5.187,2.918,5.187,2.918s4.647,8.428,1.189,16.749l-1.707.272c-3.255.532-10.382,1.712-14.372,2.537v0c-.013,0-3.912,0-4.452-6.155s7.24-9.293,8-13.075-4.214-6.916-3.35-12.967,5.727-13.723,19.667-15.993,15.941,10.032,10.728,16.848c-.506-1.573-1.011-3.116-1.47-4.508a5.9,5.9,0,0,1,1.638-.06.431.431,0,0,0,.1-.856,6.562,6.562,0,0,0-1.954.078l-.061.013A9.063,9.063,0,0,0,355,340.291a9.381,9.381,0,0,1-1.063,7.8c-.156.013-.268.03-.32.035l-.065.013c-.285.065-2.8.683-3.618,1.547a.431.431,0,0,0,.013.609.428.428,0,0,0,.609-.013,7.856,7.856,0,0,1,2.736-1.184,22.468,22.468,0,0,1-5.6,5.459l-.151,2.809A3.221,3.221,0,0,0,343.87,360.606Z" transform="translate(-309.832 -236.015)" fill="#1e1950"/>
                <path id="Path_176" data-name="Path 176" d="M334.584,566.11l2.369,4.408-1,.472-7.3,3.445-1.271.6s-1.042-1.673-2.563-4.132A24.484,24.484,0,0,1,334.584,566.11Z" transform="translate(-307.068 -367.452)" fill="#a9d9ff"/>
                <path id="Path_177" data-name="Path 177" d="M340.989,577.4s1.634,3.933,1.612,4.8c-.013.441-.225,3.886-.536,7.145-.3,3.134-.687,6.09-1.076,6.038a5.891,5.891,0,0,1-1.936-1.241,13.956,13.956,0,0,1-4.149-5.675,24.892,24.892,0,0,1-1.215-7.62Z" transform="translate(-312.103 -373.862)" fill="#fda181"/>
                <path id="Path_178" data-name="Path 178" d="M330.929,674.816c.324-6.159,1.6-64.182,1.772-64.995a5.888,5.888,0,0,0,1.936,1.24c.389.052.778-2.9,1.076-6.038,0,0,15.111,2.187,29.595,0v0s-1.673,6.54-4,15.586c-5,19.4-13,50.329-13.957,52.909,0,0-.756,17.583-10.157,40.167,0,0-.346.113-.972.246a24.245,24.245,0,0,1-11.873-.575c-.605-.186-1.223-.4-1.85-.644C322.5,712.714,330.6,680.975,330.929,674.816Z" transform="translate(-305.751 -389.543)" fill="#29818c"/>
                <path id="Path_179" data-name="Path 179" d="M302.349,855.67a24.243,24.243,0,0,0,11.873.575l-1.189,11.994-29.284.54s0-3.566.864-5.295,15.884-4.43,15.884-4.43Z" transform="translate(-283.75 -531.855)" fill="#1e1950"/>
                <path id="Path_180" data-name="Path 180" d="M339.452,483.159s.653,1.569,1.621,3.907l-.009,0-4.5,8.48,2.546-12.461Z" transform="translate(-313.734 -320.316)" fill="#29818c"/>
              </g>
            </g>
          </g>
        </g>
      </g>
    </g>
    <path id="Path_181" data-name="Path 181" d="M645.959,225.78c-.424-4.04-3.97-10.432-7.2-12.68-.916-.637-3.974-2.117-5.129-1.093-1.894,1.678.911,4.572,1.958,5.7a30.175,30.175,0,0,1,4.834,6.037c.863,1.649,1.176,3.832,2.3,5.273,3.147,4.041,4.758-1.07,2.953-4.106" transform="translate(-346.847 -59.704)" fill="#fff"/>
    <path id="Path_182" data-name="Path 182" d="M658.686,270.333c-.4.992-1.6,4.858-1.158,6.051a2.183,2.183,0,0,0,4,.576c1.992-2.74-2.246-8.726-3.414-5.187" transform="translate(-360.727 -93.019)" fill="#fff"/>
  </g>
</svg>
