<svg width="250" height="250" viewBox="0 0 250 250" fill="none" xmlns="http://www.w3.org/2000/svg">
<circle cx="125" cy="125" r="125" fill="#2B7C80"/>
<path d="M194.706 146.031V145.141C194.725 144.696 194.674 144.251 194.555 143.822C194.362 143.17 193.961 142.602 193.416 142.208C192.87 141.814 192.211 141.615 191.543 141.644H190.986C190.289 141.781 189.663 142.164 189.217 142.725C188.77 143.286 188.533 143.99 188.545 144.712C188.545 149.231 188.545 153.75 188.545 158.269V168.468C188.545 174.848 184.78 178.667 178.499 178.667H71.1773C64.8811 178.667 61.1305 174.848 61.1154 168.468V145.356C61.1821 144.899 61.152 144.433 61.0272 143.989C60.9024 143.546 60.6858 143.134 60.3919 142.783C60.098 142.431 59.7336 142.148 59.3232 141.951C58.9128 141.755 58.4659 141.65 58.0125 141.644C55.2259 141.644 55 144.451 55 145.31V168.867C55 178.329 61.5522 184.955 70.8911 184.955H156.944H179.538C181.519 184.967 183.483 184.579 185.316 183.812C187.149 183.046 188.814 181.917 190.216 180.49C191.617 179.064 192.726 177.368 193.478 175.502C194.231 173.636 194.613 171.636 194.601 169.618C194.751 161.781 194.721 153.914 194.706 146.031ZM93.2441 135.402C102.914 143.306 112.595 151.184 122.285 159.036C122.994 159.732 123.9 160.183 124.876 160.324C125.833 160.188 126.724 159.748 127.421 159.067C137.363 151 147.284 142.917 157.185 134.82C157.589 134.518 157.931 134.138 158.189 133.701C158.448 133.264 158.618 132.779 158.691 132.274C158.737 131.441 158.456 130.623 157.912 129.999C157.367 129.376 156.602 128.997 155.784 128.946C154.873 128.991 154.002 129.348 153.314 129.958L140.119 140.694C138.613 141.966 137.001 143.224 135.344 144.558L127.903 150.555V117.045C127.903 97.7204 127.903 89.3086 127.903 69.9743C127.896 68.955 127.626 67.9555 127.12 67.0757C126.89 66.7301 126.576 66.4501 126.21 66.2622C125.844 66.0744 125.436 65.9848 125.026 66.0021C124.662 66.0021 124.301 66.0643 123.957 66.1861C123.281 66.4002 122.701 66.8494 122.319 67.455C121.936 68.0607 121.775 68.7842 121.863 69.4988V150.294L116.305 146.046C115.853 145.724 115.522 145.448 115.175 145.187L109.316 140.463C105.239 137.13 101.142 133.813 97.0248 130.51C96.394 129.971 95.6036 129.663 94.7804 129.636C94.3317 129.641 93.8901 129.751 93.4903 129.959C93.0905 130.166 92.7432 130.465 92.4759 130.832C92.2018 131.172 92.0027 131.568 91.8921 131.993C91.7815 132.418 91.762 132.862 91.8348 133.296C91.9077 133.729 92.0712 134.142 92.3144 134.505C92.5575 134.869 92.8746 135.175 93.2441 135.402Z" fill="white"/>
</svg>
