<svg width="34" height="34" viewBox="0 0 34 34" fill="none" xmlns="http://www.w3.org/2000/svg">
<path d="M18.4444 19.2667H15L15 11H18.4444V19.2667Z" fill="white"/>
<path d="M16.7222 21.1956C15.7711 21.1956 15 21.9666 15 22.9178C15 23.8689 15.7711 24.64 16.7222 24.64C17.6734 24.64 18.4444 23.8689 18.4444 22.9178C18.4444 21.9666 17.6734 21.1956 16.7222 21.1956Z" fill="white"/>
<circle cx="17.5" cy="17.5" r="15.5" fill="#17A2B8"/>
<path d="M16 16.3733H19.4444V24.64H16V16.3733Z" fill="white"/>
<path d="M17.7222 14.4444C18.6734 14.4444 19.4444 13.6734 19.4444 12.7222C19.4444 11.7711 18.6734 11 17.7222 11C16.7711 11 16 11.7711 16 12.7222C16 13.6734 16.7711 14.4444 17.7222 14.4444Z" fill="white"/>
</svg>
