<svg width="50" height="50" viewBox="0 0 50 50" fill="none" xmlns="http://www.w3.org/2000/svg">
<circle cx="25" cy="25" r="25" fill="#DCEBEC"/>
<path d="M32.1593 11.7903C32.0634 11.2673 31.9819 10.7922 31.9004 10.3124C31.8039 9.92031 31.8368 9.50751 31.9941 9.13564C32.1514 8.76378 32.4246 8.4528 32.7731 8.24914C33.1028 8.05693 33.4844 7.97257 33.8643 8.00784C34.2443 8.04311 34.6038 8.19625 34.8926 8.44587C35.2651 8.7868 35.499 9.25317 35.5495 9.7558C35.89 11.7423 36.2257 13.7288 36.5709 15.7105C36.6446 15.9743 36.6591 16.2512 36.6135 16.5214C36.5679 16.7915 36.4633 17.0483 36.3071 17.2733C36.1509 17.4983 35.947 17.6861 35.71 17.8232C35.4729 17.9603 35.2086 18.0433 34.9357 18.0664C32.8546 18.4375 30.7767 18.799 28.702 19.1508C28.4575 19.1917 28.2072 19.1828 27.9662 19.1248C27.7252 19.0668 27.4983 18.9608 27.2991 18.8132C27.0999 18.6656 26.9325 18.4793 26.8068 18.2655C26.6811 18.0517 26.5997 17.8147 26.5675 17.5688C26.5352 17.3228 26.5529 17.0729 26.6193 16.8339C26.6857 16.5949 26.7995 16.3718 26.9539 16.1777C27.1084 15.9837 27.3003 15.8228 27.5182 15.7046C27.7362 15.5864 27.9757 15.5133 28.2225 15.4897L30.457 15.1155C29.4889 14.5362 28.4377 14.109 27.3401 13.8487C25.0352 13.3023 22.6197 13.4571 20.4032 14.2933C18.1868 15.1294 16.2704 16.6089 14.8997 18.542C13.529 20.4752 12.7664 22.7738 12.7098 25.1434C12.6532 27.513 13.305 29.8456 14.5818 31.842C15.8586 33.8385 17.7021 35.408 19.8761 36.3492C22.0501 37.2904 24.4555 37.5606 26.7839 37.125C29.1123 36.6894 31.2576 35.568 32.945 33.9044C34.6323 32.2408 35.7847 30.111 36.2544 27.7878C36.3024 27.567 36.3264 27.3367 36.3695 27.1112C36.4593 26.657 36.7171 26.2534 37.0914 25.9812C37.4657 25.709 37.9288 25.5882 38.3883 25.6429C38.6277 25.6702 38.8592 25.7448 39.0695 25.8625C39.2798 25.9801 39.4646 26.1384 39.6132 26.3282C39.7618 26.5179 39.8712 26.7354 39.935 26.9678C39.9989 27.2003 40.0159 27.4431 39.9851 27.6822C39.7244 29.6601 39.0729 31.5663 38.0685 33.2897C37.0641 35.0131 35.7269 36.5192 34.1349 37.7202C32.081 39.3177 29.6599 40.3749 27.0927 40.7953C24.5255 41.2158 21.8939 40.9861 19.4381 40.1273C16.9824 39.2684 14.7808 37.8077 13.0343 35.8786C11.2877 33.9494 10.0519 31.6132 9.43965 29.0833C7.35853 20.5951 12.8826 11.8766 21.4277 10.1876C24.9565 9.44637 28.6331 9.95522 31.8285 11.6271C31.8956 11.6703 32.0011 11.7135 32.1593 11.7903Z" fill="#2B7C80"/>
</svg>
