<svg width="50" height="50" viewBox="0 0 50 50" fill="none" xmlns="http://www.w3.org/2000/svg">
<circle cx="25" cy="25" r="25" fill="#DCEBEC"/>
<path d="M37.18 20.065L29.935 12.82C29.0919 11.9758 27.9481 11.5011 26.755 11.5H16C14.8065 11.5 13.6619 11.9741 12.818 12.818C11.9741 13.6619 11.5 14.8065 11.5 16V34C11.5 35.1935 11.9741 36.3381 12.818 37.182C13.6619 38.0259 14.8065 38.5 16 38.5H34C35.1935 38.5 36.3381 38.0259 37.182 37.182C38.0259 36.3381 38.5 35.1935 38.5 34V23.245C38.4989 22.0519 38.0242 20.9081 37.18 20.065ZM22 35.5V32.5H28V35.5H22ZM35.5 34C35.5 34.3978 35.342 34.7794 35.0607 35.0607C34.7794 35.342 34.3978 35.5 34 35.5H31V31C31 30.6022 30.842 30.2206 30.5607 29.9393C30.2794 29.658 29.8978 29.5 29.5 29.5H20.5C20.1022 29.5 19.7206 29.658 19.4393 29.9393C19.158 30.2206 19 30.6022 19 31V35.5H16C15.6022 35.5 15.2206 35.342 14.9393 35.0607C14.658 34.7794 14.5 34.3978 14.5 34V16C14.5 15.6022 14.658 15.2206 14.9393 14.9393C15.2206 14.658 15.6022 14.5 16 14.5H19V22C19 22.3978 19.158 22.7794 19.4393 23.0607C19.7206 23.342 20.1022 23.5 20.5 23.5H26.5C26.8978 23.5 27.2794 23.342 27.5607 23.0607C27.842 22.7794 28 22.3978 28 22C28 21.6022 27.842 21.2206 27.5607 20.9393C27.2794 20.658 26.8978 20.5 26.5 20.5H22V14.5H26.755C27.1522 14.5055 27.5325 14.6609 27.82 14.935L35.065 22.18C35.204 22.3202 35.314 22.4864 35.3887 22.6691C35.4633 22.8519 35.5011 23.0476 35.5 23.245V34Z" fill="#2B7C80"/>
</svg>
