<svg width="50" height="50" viewBox="0 0 50 50" fill="none" xmlns="http://www.w3.org/2000/svg">
<circle cx="25" cy="25" r="25" fill="#DCEBEC"/>
<path d="M16.8407 11.7903C16.9366 11.2673 17.0181 10.7922 17.0996 10.3124C17.1961 9.92031 17.1632 9.50751 17.0059 9.13564C16.8486 8.76378 16.5754 8.4528 16.2269 8.24914C15.8972 8.05693 15.5156 7.97257 15.1357 8.00784C14.7557 8.04311 14.3962 8.19625 14.1074 8.44587C13.7349 8.7868 13.501 9.25317 13.4505 9.7558C13.11 11.7423 12.7743 13.7288 12.4291 15.7105C12.3554 15.9743 12.3409 16.2512 12.3865 16.5214C12.4321 16.7915 12.5367 17.0483 12.6929 17.2733C12.8491 17.4983 13.053 17.6861 13.29 17.8232C13.5271 17.9603 13.7914 18.0433 14.0643 18.0664C16.1454 18.4375 18.2233 18.799 20.298 19.1508C20.5425 19.1917 20.7928 19.1828 21.0338 19.1248C21.2748 19.0668 21.5017 18.9608 21.7009 18.8132C21.9001 18.6656 22.0675 18.4793 22.1932 18.2655C22.3189 18.0517 22.4003 17.8147 22.4325 17.5688C22.4648 17.3228 22.4471 17.0729 22.3807 16.8339C22.3143 16.5949 22.2005 16.3718 22.0461 16.1777C21.8916 15.9837 21.6997 15.8228 21.4818 15.7046C21.2638 15.5864 21.0243 15.5133 20.7775 15.4897L18.543 15.1155C19.5111 14.5362 20.5623 14.109 21.6599 13.8487C23.9648 13.3023 26.3803 13.4571 28.5968 14.2933C30.8132 15.1294 32.7296 16.6089 34.1003 18.542C35.471 20.4752 36.2336 22.7738 36.2902 25.1434C36.3468 27.513 35.695 29.8456 34.4182 31.842C33.1414 33.8385 31.2979 35.408 29.1239 36.3492C26.9499 37.2904 24.5445 37.5606 22.2161 37.125C19.8877 36.6894 17.7424 35.568 16.055 33.9044C14.3677 32.2408 13.2153 30.111 12.7456 27.7878C12.6976 27.567 12.6736 27.3367 12.6305 27.1112C12.5407 26.657 12.2829 26.2534 11.9086 25.9812C11.5343 25.709 11.0712 25.5882 10.6117 25.6429C10.3723 25.6702 10.1408 25.7448 9.9305 25.8625C9.72021 25.9801 9.53541 26.1384 9.38682 26.3282C9.23824 26.5179 9.12884 26.7354 9.06499 26.9678C9.00114 27.2003 8.98411 27.4431 9.0149 27.6822C9.2756 29.6601 9.92713 31.5663 10.9315 33.2897C11.9359 35.0131 13.2731 36.5192 14.8651 37.7202C16.919 39.3177 19.3401 40.3749 21.9073 40.7953C24.4745 41.2158 27.1061 40.9861 29.5619 40.1273C32.0176 39.2684 34.2192 37.8077 35.9657 35.8786C37.7123 33.9494 38.9481 31.6132 39.5604 29.0833C41.6415 20.5951 36.1174 11.8766 27.5723 10.1876C24.0435 9.44637 20.3669 9.95522 17.1715 11.6271C17.1044 11.6703 16.9989 11.7135 16.8407 11.7903Z" fill="#2B7C80"/>
</svg>
