<svg width="34" height="34" viewBox="0 0 34 34" fill="none" xmlns="http://www.w3.org/2000/svg">
<path d="M19.4444 17.2667H16L16 9H19.4444V17.2667Z" fill="white"/>
<path d="M17.7222 19.1956C16.7711 19.1956 16 19.9666 16 20.9178C16 21.8689 16.7711 22.64 17.7222 22.64C18.6734 22.64 19.4444 21.8689 19.4444 20.9178C19.4444 19.9666 18.6734 19.1956 17.7222 19.1956Z" fill="white"/>
<path d="M17.254 3L2 29.24H33L17.254 3Z" fill="#FFC107"/>
<path d="M19.1675 20.426H15.7778V12.0831H19.1675V20.426Z" fill="white"/>
<path d="M17.4727 22.3727C16.5366 22.3727 15.7778 23.1509 15.7778 24.1109C15.7778 25.0708 16.5366 25.849 17.4727 25.849C18.4087 25.849 19.1675 25.0708 19.1675 24.1109C19.1675 23.1509 18.4087 22.3727 17.4727 22.3727Z" fill="white"/>
</svg>
