<svg width="30" height="30" viewBox="0 0 30 30" fill="none" xmlns="http://www.w3.org/2000/svg">
<circle cx="15" cy="15" r="13" fill="white" stroke="#51C63A" stroke-width="2"/>
<path d="M24.6042 12.9167H17.0833V5.39583C17.0833 5.17812 16.9052 5 16.6875 5H14.3125C14.0948 5 13.9167 5.17812 13.9167 5.39583V12.9167H6.39583C6.17812 12.9167 6 13.0948 6 13.3125V15.6875C6 15.9052 6.17812 16.0833 6.39583 16.0833H13.9167V23.6042C13.9167 23.8219 14.0948 24 14.3125 24H16.6875C16.9052 24 17.0833 23.8219 17.0833 23.6042V16.0833H24.6042C24.8219 16.0833 25 15.9052 25 15.6875V13.3125C25 13.0948 24.8219 12.9167 24.6042 12.9167Z" fill="#52C63A"/>
</svg>
