<svg xmlns="http://www.w3.org/2000/svg" width="27.615" height="29.665" viewBox="0 0 27.615 29.665">
  <g id="Analyze_icon" data-name="Analyze icon" transform="translate(0 -0.274)" style="isolation: isolate">
    <path id="Path_1534" data-name="Path 1534" d="M12648,21374.021h3.538V21365H12648Z" transform="translate(-12636.479 -21345.264)" fill="#6b7f9e" fill-rule="evenodd"/>
    <path id="Path_1535" data-name="Path 1535" d="M5683,24376.285h3.535V24370H5683Z" transform="translate(-5677.823 -24347.527)" fill="#83cf8f" fill-rule="evenodd"/>
    <path id="Path_1536" data-name="Path 1536" d="M19614,13884.853h3.537V13869H19614Z" transform="translate(-19596.133 -13856.092)" fill="#ff7069" fill-rule="evenodd"/>
    <path id="Path_1537" data-name="Path 1537" d="M905,30057.826h21.832V30057l1.142,1.143-1.142,1.143v-.822H905Z" transform="translate(-904.176 -30029.346)" fill="#fff" fill-rule="evenodd"/>
    <path id="Path_1538" data-name="Path 1538" d="M.824,8602.024v-19.882H0L1.142,8581l1.142,1.143H1.46v19.882Z" transform="translate(0 -8572.908)" fill="#b9c1c9" fill-rule="evenodd"/>
    <path id="Path_1539" data-name="Path 1539" d="M3764.485,6675.85c-2.276,7.782-10.255,8.334-14.486,8.031,6.719-.647,10.708-4.192,12.483-8.863l-1.47-.611,3.623-1.957,1.139,3.9Zm2.627-3.85h7.086v.606h-7.086Zm0,3.938h3.678v.606h-3.678Zm0-1.295h6.63v.6h-6.63Zm0-1.321h5.377v.606h-5.377Z" transform="translate(-3746.583 -6665.648)" fill="#b9c1c9" fill-rule="evenodd"/>
    <g id="Group_152" data-name="Group 152" transform="translate(2.69 0.274)">
      <path id="Path_1540" data-name="Path 1540" d="M4096.971,208a5.393,5.393,0,0,0-2.971,2.045l.971.707h0l.8.584a3.215,3.215,0,0,1,1.769-1.218l-.239-.886-.021-.072Z" transform="translate(-4092.961 -207.811)" fill="#83cf8f" fill-rule="evenodd"/>
      <path id="Path_1541" data-name="Path 1541" d="M2956.151,2454.291a3.228,3.228,0,1,0,5.623,3.06l.857.331h0l.07.028,1.12.431a5.423,5.423,0,1,1-9.445-5.141l1.032.751h0Z" transform="translate(-2953.337 -2450.766)" fill="#ff7069" fill-rule="evenodd"/>
      <path id="Path_1542" data-name="Path 1542" d="M7355.314,1.623l.02.072.24.886a3.228,3.228,0,0,1,3.854,4.278l.856.331.071.027,1.121.432A5.423,5.423,0,0,0,7355,.464Z" transform="translate(-7350.99 -0.274)" fill="#6b7f9e" fill-rule="evenodd"/>
    </g>
  </g>
</svg>
