<svg xmlns="http://www.w3.org/2000/svg" width="50" height="50" viewBox="0 0 50 50">
  <g id="create" transform="translate(4376 14765)">
    <circle id="Ellipse_29" data-name="Ellipse 29" cx="25" cy="25" r="25" transform="translate(-4376 -14765)" fill="#fff"/>
    <g id="Icon_ionic-ios-create" data-name="Icon ionic-ios-create" transform="translate(-4366.25 -14757.365)">
      <g id="Group_4454" data-name="Group 4454" transform="translate(13.547 3.375)">
        <path id="Path_5546" data-name="Path 5546" d="M27.8,6.04,14.217,19.623a.529.529,0,0,0-.155.377v1.782a.532.532,0,0,0,.531.531h1.769a.545.545,0,0,0,.383-.155L30.336,8.575a.532.532,0,0,0,0-.753L28.554,6.04A.532.532,0,0,0,27.8,6.04Z" transform="translate(-14.063 -3.484)" fill="#2b7c80"/>
        <path id="Path_5547" data-name="Path 5547" d="M33.287,4.653l-.968-.968-.013-.013a1.189,1.189,0,0,0-.773-.3,1.165,1.165,0,0,0-.78.3l-.76.767a.272.272,0,0,0,0,.377l.7.7L32.15,6.979a.268.268,0,0,0,.383,0l.76-.76a1.147,1.147,0,0,0,.3-.78A1.217,1.217,0,0,0,33.287,4.653Z" transform="translate(-14.754 -3.375)" fill="#2b7c80"/>
      </g>
      <path id="Path_5548" data-name="Path 5548" d="M16.909,23.374a1.08,1.08,0,0,1-.76.316H13.366a1.079,1.079,0,0,1-1.076-1.076V19.824a1.08,1.08,0,0,1,.316-.76l.054-.054,9.925-9.925a.268.268,0,0,0-.188-.457H6.2A3.949,3.949,0,0,0,2.25,12.575V27.637A3.949,3.949,0,0,0,6.2,31.585H23.412a3.949,3.949,0,0,0,3.947-3.947V13.583a.267.267,0,0,0-.457-.188L16.963,23.32Z" transform="translate(0 -0.229)" fill="#2b7c80"/>
    </g>
  </g>
</svg>
