<svg xmlns="http://www.w3.org/2000/svg" width="288.41" height="207.594" viewBox="0 0 288.41 207.594"><defs><style>.a{fill:#dbe8ec;}.b{fill:#b9d4db;}.c,.g,.h{fill:none;stroke-miterlimit:10;}.c,.g{stroke:#3086a3;}.c,.h{stroke-linecap:round;}.c{stroke-width:4px;}.d{fill:#f9ae2b;}.e{fill:#409cb5;}.f{fill:#3086a3;}.g{stroke-width:10px;}.h{stroke:#b9d4db;stroke-width:3px;}</style></defs><g transform="translate(-56.096 -64.311)"><path class="a" d="M344.506,157.221v-9.755a7.014,7.014,0,0,0-7.014-7.014H312.734a7.014,7.014,0,0,1-7.014-7.014v-9.755a7.014,7.014,0,0,1,7.014-7.014h.782a7.014,7.014,0,0,0,7.014-7.014V99.9a7.014,7.014,0,0,0-7.014-7.014H103.348A7.014,7.014,0,0,0,96.334,99.9v9.755a7.014,7.014,0,0,0,7.014,7.014h0a7.014,7.014,0,0,1,7.014,7.014v9.755a7.014,7.014,0,0,1-7.014,7.014H76.224a7.014,7.014,0,0,0-7.014,7.014v9.755a7.014,7.014,0,0,0,7.014,7.014H86.867a7.014,7.014,0,0,1,7.014,7.014V181a7.014,7.014,0,0,1-7.014,7.014h-.026a7.014,7.014,0,0,0-7.014,7.014v9.755a7.014,7.014,0,0,0,7.014,7.014h1.54a7.014,7.014,0,0,1,7.014,7.014v9.755a7.014,7.014,0,0,1-7.014,7.014H63.11A7.014,7.014,0,0,0,56.1,242.6v9.755a7.014,7.014,0,0,0,7.014,7.014H317.282a7.014,7.014,0,0,0,7.014-7.014V242.6a7.014,7.014,0,0,0-7.014-7.014H311.2a7.014,7.014,0,0,1-7.014-7.014v-9.755A7.014,7.014,0,0,1,311.2,211.8h14.34a7.014,7.014,0,0,0,7.014-7.014v-9.755a7.014,7.014,0,0,0-7.014-7.014h-4.35A7.014,7.014,0,0,1,314.176,181v-9.755a7.014,7.014,0,0,1,7.014-7.014h16.3a7.014,7.014,0,0,0,7.014-7.014Z" transform="translate(0 -13.25)"/><rect class="b" width="39.253" height="18.415" rx="2" transform="translate(168.973 170.123) rotate(180)"/><rect class="b" width="39.253" height="18.415" rx="2" transform="translate(188.6 148.388) rotate(180)"/><rect class="b" width="39.253" height="18.415" rx="2" transform="translate(146.028 148.388) rotate(180)"/><rect class="b" width="39.253" height="18.415" rx="2" transform="translate(240.478 183.098)"/><rect class="b" width="39.253" height="18.415" rx="2" transform="translate(220.852 204.832)"/><rect class="b" width="39.253" height="18.415" rx="2" transform="translate(263.425 204.832)"/><path class="c" d="M216.994,378.09v6.878a10.016,10.016,0,0,1-10.016,10.016H173.33A10.016,10.016,0,0,0,163.314,405h0A10.016,10.016,0,0,1,153.3,415.016H127.31A10.016,10.016,0,0,1,117.294,405V387.248a10.016,10.016,0,0,0-10.016-10.016H76.1" transform="translate(-9.275 -145.111)"/><rect class="d" width="107.726" height="104.637" rx="7" transform="translate(154.039 64.311)"/><path class="e" d="M340.187,258.592H292.738a2.145,2.145,0,0,0-2.145,2.145V281.93a2.145,2.145,0,0,0,2.145,2.145h7.227a2.145,2.145,0,0,1,2.145,2.145v19.263a2.145,2.145,0,0,0,2.145,2.145H328.67a2.145,2.145,0,0,0,2.145-2.145V286.221a2.145,2.145,0,0,1,2.145-2.145h7.227a2.145,2.145,0,0,0,2.145-2.145V260.737A2.145,2.145,0,0,0,340.187,258.592Z" transform="translate(-108.744 -90.094)"/><rect class="d" width="43.052" height="7.722" rx="3.861" transform="translate(186.193 209.812)"/><path class="f" d="M311.653,350.032H340.8v4.006a3.716,3.716,0,0,1-3.716,3.716H315.369a3.716,3.716,0,0,1-3.716-3.716Z" transform="translate(-118.51 -132.498)"/><path class="e" d="M322.51,364.432h17.508v6.691a8.754,8.754,0,0,1-8.754,8.754h0a8.754,8.754,0,0,1-8.754-8.754v-6.691Z" transform="translate(-123.545 -139.175)"/><line class="g" y1="22.974" transform="translate(220.053 145.524)"/><line class="g" y1="22.974" transform="translate(195.385 145.524)"/><circle class="e" cx="25.484" cy="25.484" r="25.484" transform="translate(182.418 91.146)"/><path class="f" d="M297.505,146.295a25.476,25.476,0,0,1,41.17-20.075,25.48,25.48,0,1,0-37.226,33.688A25.354,25.354,0,0,1,297.505,146.295Z" transform="translate(-109.235 -23.202)"/><circle class="f" cx="4.44" cy="4.44" r="4.44" transform="translate(191.127 113.925)"/><circle class="f" cx="4.44" cy="4.44" r="4.44" transform="translate(215.796 113.925)"/><line class="h" x2="17.323" transform="translate(274.633 100.22)"/><line class="h" x2="17.323" transform="translate(274.633 105.213)"/><line class="h" x2="17.323" transform="translate(274.633 110.206)"/><line class="h" x2="17.323" transform="translate(122.319 95.227)"/><line class="h" x2="17.323" transform="translate(122.319 100.22)"/><line class="h" x2="17.323" transform="translate(122.319 105.213)"/><line class="h" x2="17.323" transform="translate(144.214 196.193)"/><line class="h" x2="17.323" transform="translate(144.214 201.187)"/><line class="h" x2="17.323" transform="translate(144.214 206.179)"/></g></svg>