<svg xmlns="http://www.w3.org/2000/svg" width="18.227" height="35.113" viewBox="0 0 18.227 35.113">
  <g id="right" transform="translate(-991.773 -417.386)">
    <path id="Path_1547" data-name="Path 1547" d="M16,26.556a13.419,13.419,0,0,0,.208,2.508A17.9,17.9,0,0,0,31.623,43.911a14.989,14.989,0,0,0,2.6.2V9a14.989,14.989,0,0,0-2.6.2A17.9,17.9,0,0,0,16.209,24.048,13.419,13.419,0,0,0,16,26.556Z" transform="translate(975.773 408.387)" fill="#29818c"/>
    <path id="XMLID_31_" d="M3.2,26.525a.648.648,0,0,1,.018-.957L7.4,21.858,3.22,18.148a.647.647,0,0,1-.018-.957.785.785,0,0,1,1.036-.017l4.726,4.2a.652.652,0,0,1,0,.974l-4.726,4.2a.818.818,0,0,1-.509.185A.793.793,0,0,1,3.2,26.525Z" transform="translate(997.887 413.086)" fill="#fff"/>
  </g>
</svg>
