<svg xmlns="http://www.w3.org/2000/svg" width="18.701" height="18.701" viewBox="0 0 18.701 18.701">
  <path id="Icon_awesome-save" data-name="Icon awesome-save" d="M18.114,6.338l-3.5-3.5A2,2,0,0,0,13.2,2.25H2a2,2,0,0,0-2,2V18.947a2,2,0,0,0,2,2H16.7a2,2,0,0,0,2-2V7.755a2,2,0,0,0-.587-1.417ZM9.351,18.28a2.672,2.672,0,1,1,2.672-2.672A2.672,2.672,0,0,1,9.351,18.28ZM13.358,5.568v4.2a.5.5,0,0,1-.5.5H3.173a.5.5,0,0,1-.5-.5V5.423a.5.5,0,0,1,.5-.5h9.539a.5.5,0,0,1,.354.147l.145.145a.5.5,0,0,1,.147.354Z" transform="translate(0 -2.25)" fill="#29818c"/>
</svg>
