<svg xmlns="http://www.w3.org/2000/svg" width="50" height="50" viewBox="0 0 50 50">
  <g id="single_fiber" data-name="single fiber" transform="translate(5548 14604)">
    <g id="Group_4491" data-name="Group 4491" transform="translate(-5554 -14692)">
      <rect id="Rectangle_2349" data-name="Rectangle 2349" width="50" height="50" rx="5" transform="translate(6 88)" fill="none"/>
    </g>
    <g id="Group_4483" data-name="Group 4483" transform="translate(239.211 1231.211)">
      <path id="Union_1" data-name="Union 1" d="M15.923,27.612V17.28L18.432,14a3.508,3.508,0,0,1-.373-.662,3.47,3.47,0,0,1-.282-1.376,3.251,3.251,0,0,1,.308-1.377A3.7,3.7,0,0,1,18.9,9.461a3.456,3.456,0,0,1,4.934,0,3.7,3.7,0,0,1,.813,1.124,3.251,3.251,0,0,1,.308,1.377,3.471,3.471,0,0,1-.282,1.376,3.522,3.522,0,0,1-.769,1.124A3.6,3.6,0,0,1,21.365,15.5,3.624,3.624,0,0,1,20.3,15.34l-2.252,2.739v9.533Zm4.394-15.651a1.048,1.048,0,0,0,2.1,0,1.048,1.048,0,0,0-2.1,0ZM6.979,27.612V18.079L4.712,15.321a3.653,3.653,0,0,1-2.52-.1,3.577,3.577,0,0,1-1.141-.758,3.522,3.522,0,0,1-.769-1.124A3.47,3.47,0,0,1,0,11.961a3.253,3.253,0,0,1,.308-1.377,3.7,3.7,0,0,1,.813-1.124A3.645,3.645,0,0,1,3.588,8.425,3.645,3.645,0,0,1,6.055,9.461a3.7,3.7,0,0,1,.813,1.124,3.253,3.253,0,0,1,.308,1.377,3.47,3.47,0,0,1-.282,1.376,3.509,3.509,0,0,1-.337.61L9.106,17.28V27.612ZM2.54,11.961a1.048,1.048,0,0,0,2.1,0,1.083,1.083,0,0,0-1.048-1.033A1.083,1.083,0,0,0,2.54,11.961ZM11.292,27.6V6.886q-.122-.041-.241-.091A3.58,3.58,0,0,1,9.91,6.037a3.522,3.522,0,0,1-.769-1.124,3.471,3.471,0,0,1-.282-1.376A3.251,3.251,0,0,1,9.167,2.16,3.7,3.7,0,0,1,9.98,1.036,3.645,3.645,0,0,1,12.447,0a3.644,3.644,0,0,1,2.467,1.036,3.7,3.7,0,0,1,.813,1.124,3.251,3.251,0,0,1,.308,1.377,3.47,3.47,0,0,1-.282,1.376,3.521,3.521,0,0,1-.769,1.124,3.579,3.579,0,0,1-1.141.758q-.122.051-.248.093V27.6ZM11.4,3.536a1.048,1.048,0,0,0,2.1,0,1.048,1.048,0,0,0-2.1,0Z" transform="translate(-5757.298 -15824.865) rotate(60)" fill="#2b7c80"/>
      <path id="Subtraction_7" data-name="Subtraction 7" d="M22.5,45a22.666,22.666,0,0,1-4.535-.457A22.377,22.377,0,0,1,9.92,41.157a22.566,22.566,0,0,1-8.152-9.9A22.387,22.387,0,0,1,.457,27.035,22.667,22.667,0,0,1,0,22.5a20.69,20.69,0,0,1,.505-4.535,21.579,21.579,0,0,1,1.428-4.223A23.042,23.042,0,0,1,4.153,9.92,24.306,24.306,0,0,1,7.031,6.59a24.692,24.692,0,0,1,3.406-2.747,23.877,23.877,0,0,1,3.8-2.074A22.061,22.061,0,0,1,18.3.457a19.494,19.494,0,0,1,8.394,0,22.061,22.061,0,0,1,4.065,1.311,23.877,23.877,0,0,1,3.8,2.074A24.691,24.691,0,0,1,37.969,6.59a24.305,24.305,0,0,1,2.878,3.33,23.042,23.042,0,0,1,2.219,3.822,21.578,21.578,0,0,1,1.428,4.223A20.689,20.689,0,0,1,45,22.5a22.666,22.666,0,0,1-.457,4.535,22.377,22.377,0,0,1-3.386,8.045,22.566,22.566,0,0,1-9.9,8.152,22.387,22.387,0,0,1-4.223,1.311A22.666,22.666,0,0,1,22.5,45Zm0-43.651c-9.984,0-21.151,9.045-21.151,21.151a21.151,21.151,0,1,0,42.3,0C43.651,10.395,32.484,1.349,22.5,1.349Z" transform="translate(-5784.211 -15832.211)" fill="#2b7c80"/>
      <path id="Subtraction_10" data-name="Subtraction 10" d="M19.5,39a19.645,19.645,0,0,1-3.93-.4A19.393,19.393,0,0,1,8.6,35.67,19.557,19.557,0,0,1,1.532,27.09,19.4,19.4,0,0,1,.4,23.43a19.69,19.69,0,0,1,0-7.86A19.393,19.393,0,0,1,3.33,8.6,19.557,19.557,0,0,1,11.91,1.532,19.4,19.4,0,0,1,15.57.4a19.69,19.69,0,0,1,7.86,0A19.393,19.393,0,0,1,30.4,3.33a19.557,19.557,0,0,1,7.065,8.579A19.4,19.4,0,0,1,38.6,15.57a19.69,19.69,0,0,1,0,7.86A19.393,19.393,0,0,1,35.67,30.4a19.557,19.557,0,0,1-8.579,7.065A19.4,19.4,0,0,1,23.43,38.6,19.645,19.645,0,0,1,19.5,39Zm0-35.7c-7.646,0-16.2,6.927-16.2,16.2a16.2,16.2,0,0,0,32.4,0C35.7,10.229,27.146,3.3,19.5,3.3Z" transform="translate(-5781.211 -15829.211)" fill="#2b7c80"/>
    </g>
  </g>
</svg>
