<svg xmlns="http://www.w3.org/2000/svg" width="20.095" height="22.966" viewBox="0 0 20.095 22.966">
  <path id="copy_icon" data-name="copy icon" d="M14.354,20.1v1.794a1.077,1.077,0,0,1-1.077,1.077H1.077A1.077,1.077,0,0,1,0,21.889V5.383A1.077,1.077,0,0,1,1.077,4.306h3.23V17.583A2.515,2.515,0,0,0,6.818,20.1Zm0-15.43V0H6.818A1.077,1.077,0,0,0,5.741,1.077V17.583A1.077,1.077,0,0,0,6.818,18.66h12.2A1.077,1.077,0,0,0,20.1,17.583V5.741H15.43A1.08,1.08,0,0,1,14.354,4.665ZM19.78,3.273,16.822.315A1.077,1.077,0,0,0,16.061,0h-.272V4.306H20.1V4.034a1.077,1.077,0,0,0-.315-.761Z" fill="#6d6d6d"/>
</svg>
