<svg xmlns="http://www.w3.org/2000/svg" width="59" height="54" viewBox="0 0 59 54">
  <g id="Group_4426" data-name="Group 4426" transform="translate(-6 -7)">
    <rect id="Rectangle_2349" data-name="Rectangle 2349" width="59" height="54" transform="translate(6 7)" fill="none"/>
    <g id="Group_40" data-name="Group 40" transform="translate(-466.002 -161.854)">
      <path id="Subtraction_1" data-name="Subtraction 1" d="M5,10A5,5,0,0,1,3.054.393,5,5,0,0,1,6.946,9.607,4.969,4.969,0,0,1,5,10ZM5,2.386A2.614,2.614,0,1,0,7.614,5,2.617,2.617,0,0,0,5,2.386Z" transform="translate(495.002 173.853)" fill="#fff"/>
      <path id="Subtraction_2" data-name="Subtraction 2" d="M5,10A5,5,0,0,1,3.054.393,5,5,0,0,1,6.946,9.607,4.969,4.969,0,0,1,5,10ZM5,2.386A2.614,2.614,0,1,0,7.614,5,2.617,2.617,0,0,0,5,2.386Z" transform="translate(515.002 195.853)" fill="#fff"/>
      <path id="Subtraction_3" data-name="Subtraction 3" d="M5,10A5,5,0,0,1,3.054.393,5,5,0,0,1,6.946,9.607,4.969,4.969,0,0,1,5,10ZM5,2.386A2.614,2.614,0,1,0,7.614,5,2.617,2.617,0,0,0,5,2.386Z" transform="translate(479.002 199.853)" fill="#fff"/>
      <path id="Subtraction_4" data-name="Subtraction 4" d="M5,10A5,5,0,0,1,3.054.393,5,5,0,0,1,6.946,9.607,4.969,4.969,0,0,1,5,10ZM5,2.386A2.614,2.614,0,1,0,7.614,5,2.617,2.617,0,0,0,5,2.386Z" transform="translate(502.002 208.854)" fill="#fff"/>
      <path id="Path_19" data-name="Path 19" d="M212.676,8309.374l1.528,1.7,2.55-2.4-1.675-1.654Z" transform="translate(288.52 -8126.223)" fill="#fff"/>
      <path id="Path_22" data-name="Path 22" d="M0,0H3.41V2.75H0Z" transform="translate(505.194 187.484) rotate(-43)" fill="#fff"/>
      <path id="Path_23" data-name="Path 23" d="M0,0H3.41V23.2H0Z" transform="matrix(0.848, 0.53, -0.53, 0.848, 496.09, 181.02)" fill="#fff"/>
      <path id="Path_25" data-name="Path 25" d="M0,0H3.41V11.738H0Z" transform="matrix(0.695, 0.719, -0.719, 0.695, 516.073, 202.272)" fill="#fff"/>
      <path id="Path_24" data-name="Path 24" d="M0,0H3.41V16.1H0Z" transform="matrix(-0.407, 0.914, -0.914, -0.407, 503.257, 211.21)" fill="#fff"/>
      <path id="Path_21" data-name="Path 21" d="M0,0H3.41V2.75H0Z" transform="translate(509.703 192.213) rotate(-43)" fill="#fff"/>
      <path id="Path_20" data-name="Path 20" d="M0,0H3.41V2.75H0Z" transform="translate(514.073 196.943) rotate(-43)" fill="#fff"/>
    </g>
  </g>
</svg>
