<svg xmlns="http://www.w3.org/2000/svg" width="14.73" height="14.73" viewBox="0 0 14.73 14.73">
  <path id="Icon_awesome-plus" data-name="Icon awesome-plus" d="M13.678,8.037H8.943V3.3A1.052,1.052,0,0,0,7.891,2.25H6.839A1.052,1.052,0,0,0,5.787,3.3V8.037H1.052A1.052,1.052,0,0,0,0,9.089v1.052a1.052,1.052,0,0,0,1.052,1.052H5.787v4.735A1.052,1.052,0,0,0,6.839,16.98H7.891a1.052,1.052,0,0,0,1.052-1.052V11.193h4.735a1.052,1.052,0,0,0,1.052-1.052V9.089A1.052,1.052,0,0,0,13.678,8.037Z" transform="translate(0 -2.25)" fill="#1eabbc"/>
</svg>
