<svg xmlns="http://www.w3.org/2000/svg" width="16.655" height="19.034" viewBox="0 0 16.655 19.034">
  <path id="Icon_awesome-copy" data-name="Icon awesome-copy" d="M11.9,16.655v1.487a.892.892,0,0,1-.892.892H.892A.892.892,0,0,1,0,18.142V4.461a.892.892,0,0,1,.892-.892H3.569v11a2.084,2.084,0,0,0,2.082,2.082Zm0-12.788V0H5.651a.892.892,0,0,0-.892.892V14.573a.892.892,0,0,0,.892.892H15.763a.892.892,0,0,0,.892-.892V4.759H12.788A.9.9,0,0,1,11.9,3.866Zm4.5-1.154L13.942.261A.892.892,0,0,0,13.311,0h-.225V3.569h3.569V3.344a.892.892,0,0,0-.261-.631Z" transform="translate(0)" fill="#b8b8b8"/>
</svg>
