<svg xmlns="http://www.w3.org/2000/svg" width="20.198" height="18.755" viewBox="0 0 20.198 18.755">
  <g id="Icon_ionic-ios-create" data-name="Icon ionic-ios-create" transform="translate(-2.25 -3.375)">
    <g id="Group_4454" data-name="Group 4454" transform="translate(9.823 3.375)">
      <path id="Path_5546" data-name="Path 5546" d="M23.271,5.988l-9.105,9.105a.355.355,0,0,0-.1.252V16.54a.357.357,0,0,0,.356.356H15.6a.365.365,0,0,0,.257-.1l9.11-9.105a.356.356,0,0,0,0-.5L23.776,5.988A.356.356,0,0,0,23.271,5.988Z" transform="translate(-14.063 -4.275)" fill="#fff"/>
      <path id="Path_5547" data-name="Path 5547" d="M32.176,4.231l-.649-.649-.009-.009a.8.8,0,0,0-.518-.2.781.781,0,0,0-.523.2l-.509.514a.182.182,0,0,0,0,.252l.469.469.978.978a.18.18,0,0,0,.257,0l.509-.509a.769.769,0,0,0,.2-.523A.816.816,0,0,0,32.176,4.231Z" transform="translate(-19.753 -3.375)" fill="#fff"/>
    </g>
    <path id="Path_5548" data-name="Path 5548" d="M12.076,18.512a.724.724,0,0,1-.509.212H9.7A.723.723,0,0,1,8.98,18V16.132a.724.724,0,0,1,.212-.509l.036-.036,6.653-6.653a.18.18,0,0,0-.126-.307H4.9A2.647,2.647,0,0,0,2.25,11.273v10.1A2.647,2.647,0,0,0,4.9,24.016H16.435a2.647,2.647,0,0,0,2.646-2.646V11.949a.179.179,0,0,0-.307-.126l-6.662,6.653Z" transform="translate(0 -1.885)" fill="#fff"/>
  </g>
</svg>
