<svg xmlns="http://www.w3.org/2000/svg" width="22.976" height="25.296" viewBox="0 0 22.976 25.296">
  <g id="fiber_icon" data-name="fiber icon" transform="translate(3.645 -1.255) rotate(31)">
    <line id="Line_28" data-name="Line 28" x2="16.883" transform="matrix(0.946, 0.326, -0.326, 0.946, 5.012, 5.239)" fill="none" stroke="#444040" stroke-width="2"/>
    <g id="Group_154" data-name="Group 154" transform="matrix(0.946, 0.326, -0.326, 0.946, 2.437, 0)">
      <circle id="Ellipse_24" data-name="Ellipse 24" cx="3.742" cy="3.742" r="3.742" transform="translate(0 0)" fill="#6d6d6d"/>
      <path id="Path_189" data-name="Path 189" d="M3.885,3.742a2.86,2.86,0,0,1-.044.535A3.816,3.816,0,0,1,.555,7.442,3.2,3.2,0,0,1,0,7.485V0A3.2,3.2,0,0,1,.555.043,3.816,3.816,0,0,1,3.841,3.208,2.86,2.86,0,0,1,3.885,3.742Z" transform="translate(3.742 0)" fill="#6d6d6d"/>
    </g>
    <g id="Group_155" data-name="Group 155" transform="matrix(0.946, 0.326, -0.326, 0.946, 19.962, 5.791)">
      <circle id="Ellipse_24-2" data-name="Ellipse 24" cx="3.972" cy="3.972" r="3.972" transform="translate(0 0)" fill="#6d6d6d"/>
      <path id="Path_189-2" data-name="Path 189" d="M4.123,3.972a3.036,3.036,0,0,1-.047.567A4.05,4.05,0,0,1,.589,7.9,3.391,3.391,0,0,1,0,7.943V0A3.391,3.391,0,0,1,.589.046,4.05,4.05,0,0,1,4.076,3.4,3.036,3.036,0,0,1,4.123,3.972Z" transform="translate(3.972 0)" fill="#6d6d6d"/>
    </g>
  </g>
</svg>
