<svg id="full_screen-icon" data-name="full screen-icon" xmlns="http://www.w3.org/2000/svg" width="20" height="20" viewBox="0 0 20 20">
  <path id="Path_15" data-name="Path 15" d="M6.517,5.667H9.754a.578.578,0,0,0,.579-.579V5.079A.578.578,0,0,0,9.754,4.5H5.079a.578.578,0,0,0-.579.579V9.754a.578.578,0,0,0,.579.579h.008a.578.578,0,0,0,.579-.579V6.517l4.879,4.846a.573.573,0,0,0,.408.167.56.56,0,0,0,.408-.171.578.578,0,0,0,0-.817Z" transform="translate(-4.5 -4.5)" fill="#6d6d6d"/>
  <path id="Path_16" data-name="Path 16" d="M26.087,4.5H21.412a.578.578,0,0,0-.579.579v.008a.578.578,0,0,0,.579.579h3.238L19.8,10.546a.579.579,0,0,0,.817.821L25.5,6.517V9.754a.578.578,0,0,0,.579.579h.008a.578.578,0,0,0,.579-.579V5.079A.578.578,0,0,0,26.087,4.5Z" transform="translate(-6.666 -4.5)" fill="#6d6d6d"/>
  <path id="Path_17" data-name="Path 17" d="M10.954,19.631a.573.573,0,0,0-.408.167l-4.879,4.85V21.41a.578.578,0,0,0-.579-.579H5.079a.578.578,0,0,0-.579.579v4.675a.578.578,0,0,0,.579.579H9.754a.578.578,0,0,0,.579-.579v-.008a.578.578,0,0,0-.579-.579H6.517l4.846-4.879a.579.579,0,0,0-.408-.987Z" transform="translate(-4.5 -6.665)" fill="#6d6d6d"/>
  <path id="Path_18" data-name="Path 18" d="M26.087,20.834h-.008a.578.578,0,0,0-.579.579v3.237L20.62,19.8a.573.573,0,0,0-.408-.167.56.56,0,0,0-.408.171.578.578,0,0,0,0,.817L24.649,25.5H21.412a.578.578,0,0,0-.579.579v.008a.578.578,0,0,0,.579.579h4.675a.578.578,0,0,0,.579-.579V21.413A.578.578,0,0,0,26.087,20.834Z" transform="translate(-6.666 -6.667)" fill="#6d6d6d"/>
</svg>
