<svg xmlns="http://www.w3.org/2000/svg" width="20" height="17.5" viewBox="0 0 20 17.5">
  <path id="Icon_awesome-camera" data-name="Icon awesome-camera" d="M20,6.625v11.25a1.875,1.875,0,0,1-1.875,1.875H1.875A1.875,1.875,0,0,1,0,17.875V6.625A1.875,1.875,0,0,1,1.875,4.75H5.313l.48-1.285A1.872,1.872,0,0,1,7.547,2.25h4.9A1.872,1.872,0,0,1,14.2,3.465l.484,1.285h3.437A1.875,1.875,0,0,1,20,6.625ZM14.688,12.25A4.688,4.688,0,1,0,10,16.938,4.691,4.691,0,0,0,14.688,12.25Zm-1.25,0A3.438,3.438,0,1,1,10,8.813,3.443,3.443,0,0,1,13.438,12.25Z" transform="translate(0 -2.25)" fill="#29818c"/>
</svg>
