<svg xmlns="http://www.w3.org/2000/svg" width="15.904" height="15.904" viewBox="0 0 15.904 15.904">
  <path id="Icon_awesome-file-import" data-name="Icon awesome-file-import" d="M.5,8.946a.5.5,0,0,0-.5.5v.994a.5.5,0,0,0,.5.5H3.976V8.946Zm15.19-5.685L12.646.217A.745.745,0,0,0,12.118,0h-.189V3.976H15.9V3.787A.743.743,0,0,0,15.687,3.262Zm-4.753.963V0H4.722a.744.744,0,0,0-.746.746v8.2H7.952V6.921A.5.5,0,0,1,8.8,6.57l2.97,3a.529.529,0,0,1,0,.746L8.8,13.307a.5.5,0,0,1-.851-.351V10.934H3.976v4.225a.744.744,0,0,0,.746.746H15.159a.744.744,0,0,0,.746-.746V4.97H11.68A.748.748,0,0,1,10.934,4.225Z" fill="#29818c"/>
</svg>
