<svg xmlns="http://www.w3.org/2000/svg" width="23.282" height="20.695" viewBox="0 0 23.282 20.695">
  <path id="map_icon" data-name="map icon" d="M11.641,0A5.093,5.093,0,0,0,6.548,5.093c0,2.274,3.329,6.419,4.6,7.923a.638.638,0,0,0,.978,0c1.275-1.5,4.6-5.649,4.6-7.923A5.093,5.093,0,0,0,11.641,0ZM.813,8.729A1.294,1.294,0,0,0,0,9.93V20.048a.647.647,0,0,0,.887.6l5.58-2.54V8.687a12.241,12.241,0,0,1-.859-1.876Zm10.828,5.809a1.931,1.931,0,0,1-1.476-.686c-.795-.938-1.64-2.006-2.4-3.1v7.357l7.761,2.587V10.752c-.765,1.095-1.61,2.163-2.4,3.1A1.932,1.932,0,0,1,11.641,14.538ZM22.4,6.514l-5.58,2.54V20.7l5.654-2.262a1.293,1.293,0,0,0,.813-1.2V7.115A.647.647,0,0,0,22.4,6.514Z" fill="#6d6d6d"/>
</svg>
