<svg xmlns="http://www.w3.org/2000/svg" width="40" height="40" viewBox="0 0 40 40">
  <g id="Layer_2" data-name="Layer 2" transform="translate(0.554 0.554)">
    <g id="menu-2" transform="translate(-0.554 -0.555)">
      <rect id="Rectangle_2269" data-name="Rectangle 2269" width="40" height="40" transform="translate(40 40) rotate(180)" fill="#444040" opacity="0"/>
      <path id="Path_1546" data-name="Path 1546" d="M1.626,0A1.626,1.626,0,1,1,0,1.626,1.626,1.626,0,0,1,1.626,0Z" transform="translate(5.365 18.374)" fill="#444040"/>
      <path id="Path_1544" data-name="Path 1544" d="M1.529,0H21.237a1.529,1.529,0,0,1,1.529,1.529v.2a1.529,1.529,0,0,1-1.529,1.529H1.529A1.529,1.529,0,0,1,0,1.724v-.2A1.529,1.529,0,0,1,1.529,0Z" transform="translate(11.87 18.374)" fill="#444040"/>
      <path id="Path_1543" data-name="Path 1543" d="M1.529,0H27.741A1.529,1.529,0,0,1,29.27,1.529v.2a1.529,1.529,0,0,1-1.529,1.529H1.529A1.529,1.529,0,0,1,0,1.724v-.2A1.529,1.529,0,0,1,1.529,0Z" transform="translate(5.365 26.505)" fill="#444040"/>
      <path id="Path_1545" data-name="Path 1545" d="M1.529,0H27.741A1.529,1.529,0,0,1,29.27,1.529v.2a1.529,1.529,0,0,1-1.529,1.529H1.529A1.529,1.529,0,0,1,0,1.724v-.2A1.529,1.529,0,0,1,1.529,0Z" transform="translate(5.365 10.244)" fill="#444040"/>
    </g>
  </g>
</svg>
