<svg xmlns="http://www.w3.org/2000/svg" width="16.934" height="19.353" viewBox="0 0 16.934 19.353">
  <path id="Icon_awesome-paste" data-name="Icon awesome-paste" d="M4.838,6.955A2.119,2.119,0,0,1,6.955,4.838H12.1V2.117a.907.907,0,0,0-.907-.907H8.142a2.417,2.417,0,0,0-4.187,0H.907A.907.907,0,0,0,0,2.117v12.7a.907.907,0,0,0,.907.907H4.838Zm1.21-5.443a.907.907,0,1,1-.907.907A.907.907,0,0,1,6.048,1.512ZM13,10.886h3.931v7.56a.907.907,0,0,1-.907.907H6.955a.907.907,0,0,1-.907-.907V6.955a.907.907,0,0,1,.907-.907H12.1V9.979A.91.91,0,0,0,13,10.886Zm3.931-1.439v.229H13.305V6.048h.229a.907.907,0,0,1,.641.266l2.493,2.493a.907.907,0,0,1,.266.641Z" fill="#b8b8b8"/>
</svg>
