<svg xmlns="http://www.w3.org/2000/svg" width="17.5" height="17.5" viewBox="0 0 17.5 17.5">
  <g id="Icon_ionic-ios-save" data-name="Icon ionic-ios-save" transform="translate(-4.5 -4.5)">
    <path id="Path_5552" data-name="Path 5552" d="M18.531,4.5H17.8a.366.366,0,0,0-.365.365V8.146c0,.2.346.365.547.365h.547a.366.366,0,0,0,.365-.365V4.865A.366.366,0,0,0,18.531,4.5Z" transform="translate(-4.552)" fill="#29818c"/>
    <path id="Path_5553" data-name="Path 5553" d="M21.357,7.512,18.992,5.147A2.205,2.205,0,0,0,17.438,4.5H16.162a.736.736,0,0,0-.729.738V8.884a.731.731,0,0,1-.729.729H8.875a.731.731,0,0,1-.729-.729V5.238A.739.739,0,0,0,7.417,4.5H5.958A1.463,1.463,0,0,0,4.5,5.958V20.542A1.463,1.463,0,0,0,5.958,22H20.542A1.463,1.463,0,0,0,22,20.542V9.057A2.188,2.188,0,0,0,21.357,7.512Zm-5.1,12.3a.775.775,0,0,1-.811.729H8.137a.775.775,0,0,1-.811-.729V15.442a.775.775,0,0,1,.811-.729h7.31a.775.775,0,0,1,.811.729v4.375Z" transform="translate(0 0)" fill="#29818c"/>
  </g>
</svg>
