<svg xmlns="http://www.w3.org/2000/svg" width="50" height="50" viewBox="0 0 50 50">
  <g id="Group_4477" data-name="Group 4477" transform="translate(-6 -88)">
    <rect id="Rectangle_2349" data-name="Rectangle 2349" width="50" height="50" rx="5" transform="translate(6 88)" fill="#fff" opacity="0"/>
    <g id="Group_4268" data-name="Group 4268" transform="translate(-26.635 -363.635)">
      <g id="Ellipse_25" data-name="Ellipse 25" transform="translate(39.635 458.635)" fill="none" stroke="#29818c" stroke-width="1" stroke-dasharray="4">
        <circle cx="18" cy="18" r="18" stroke="none"/>
        <circle cx="18" cy="18" r="17.5" fill="none"/>
      </g>
      <path id="Icon_ionic-ios-send" data-name="Icon ionic-ios-send" d="M22.254,4.544,4.73,12.182a.4.4,0,0,0,.014.73l4.74,2.678a.764.764,0,0,0,.874-.086l9.347-8.058c.062-.053.21-.153.267-.1s-.033.205-.086.267L11.8,16.727a.762.762,0,0,0-.076.912l3.1,4.969a.4.4,0,0,0,.726-.01L22.794,5.074A.4.4,0,0,0,22.254,4.544Z" transform="translate(43.967 462.968)" fill="#ff6a6a"/>
    </g>
  </g>
</svg>
